<?xml version="1.0" standalone="no"?>
<!DOCTYPE svg PUBLIC "-//W3C//DTD SVG 20010904//EN"
 "http://www.w3.org/TR/2001/REC-SVG-20010904/DTD/svg10.dtd">
<svg version="1.0" xmlns="http://www.w3.org/2000/svg"
 width="720.000000pt" height="720.000000pt" viewBox="0 0 720.000000 720.000000"
 preserveAspectRatio="xMidYMid meet">

<g transform="translate(0.000000,720.000000) scale(0.100000,-0.100000)"
fill="#000000" stroke="none">
<path d="M0 3600 l0 -3600 3600 0 3600 0 0 3600 0 3600 -3600 0 -3600 0 0
-3600z m7140 0 l0 -3540 -3540 0 -3540 0 0 3540 0 3540 3540 0 3540 0 0 -3540z"/>
<path d="M360 3600 l0 -3240 1077 0 1078 0 542 542 543 543 543 -543 542 -542
1078 0 1077 0 0 3240 0 3240 -1077 0 -1078 0 -542 -542 -543 -543 -543 543
-542 542 -1078 0 -1077 0 0 -3240z m2675 2630 c302 -302 557 -550 565 -550 8
0 263 248 565 550 l550 550 1020 0 1020 0 -792 -786 c-476 -472 -793 -793
-793 -804 0 -11 317 -333 793 -804 l792 -786 -792 -786 c-476 -471 -793 -793
-793 -804 0 -11 317 -332 793 -804 l792 -786 -1020 0 -1020 0 -550 550 c-302
303 -557 550 -565 550 -8 0 -263 -247 -565 -550 l-550 -550 -1020 0 -1020 0
793 786 c475 471 792 793 792 804 0 11 -317 333 -792 804 l-793 786 792 786
c476 471 793 793 793 804 0 11 -317 333 -792 804 l-793 786 1020 0 1020 0 550
-550z"/>
<path d="M3027 4172 c-306 -306 -557 -564 -557 -572 0 -20 1110 -1130 1130
-1130 20 0 1130 1110 1130 1130 0 20 -1110 1130 -1130 1130 -8 0 -266 -251
-573 -558z m1103 -47 l525 -525 -528 -528 -527 -527 -527 527 -528 528 525
525 c289 289 527 525 530 525 3 0 241 -236 530 -525z"/>
</g>
</svg>
