<svg width="0" height="0" class="hidden">
  <symbol xmlns="http://www.w3.org/2000/svg" version="1.1" xmlns:xlink="http://www.w3.org/1999/xlink" xmlnsSvgjs="http://svgjs.com/svgjs" x="0" y="0" xml:space="preserve" viewBox="0 0 511.968 511.968" id="valknut">
    <g>
      <g xmlns="http://www.w3.org/2000/svg">
        <path d="m501.244 317.944-154.06-270.93c-4.4-7.74-12.62-12.52-21.52-12.52-8.91 0-17.13 4.78-21.53 12.52l-48.15 84.68-48.15-84.68c-4.41-7.74-12.62-12.52-21.53-12.52-8.9 0-17.12 4.78-21.52 12.52l-154.06 270.93c-4.36 7.67-4.32 17.07.12 24.69 4.43 7.62 12.58 12.31 21.4 12.31h96.79l-48.64 85.53c-4.35 7.66-4.31 17.07.12 24.69 4.44 7.62 12.59 12.31 21.41 12.31h308.12c8.82 0 16.97-4.69 21.41-12.31 4.43-7.62 4.47-17.03.12-24.69l-48.64-85.53h96.79c8.82 0 16.97-4.69 21.4-12.31 4.44-7.62 4.48-17.02.12-24.69zm-245.26-86.07 41.82 73.55h-83.64zm-181.18 73.55 111.5-196.08 41.2 72.44-70.31 123.64zm69.68 122.53 41.51-73.01h139.98l41.51 73.01zm210.29-122.53-70.31-123.64v-.01l41.2-72.43 111.5 196.08z" fill="#fcc16d" data-original="#fcc16d"></path>
        <g fill="#fca62f">
          <path d="m255.984 231.874-17.2 30.25-28.49-50.08 17.21-30.26z" fill="#fca62f" data-original="#fca62f"></path>
          <path d="m301.674 151.524-17.21 30.25-28.48-50.08 17.21-30.26z" fill="#fca62f" data-original="#fca62f"></path>
          <path d="m248.57 305.424h-34.406l-28.17 49.52h34.42z" fill="#fca62f" data-original="#fca62f"></path>
          <path d="m157.191 305.424h-34.406l-28.17 49.52h34.42z" fill="#fca62f" data-original="#fca62f"></path>
          <path d="m399.564 384.194h-56.96l-16.63-29.25h56.96z" fill="#fca62f" data-original="#fca62f"></path>
          <path d="m354.774 305.424h-56.97l-16.63-29.25h56.97z" fill="#fca62f" data-original="#fca62f"></path>
        </g>
        <path d="m507.766 314.24-62.264-109.496c-2.048-3.602-6.629-4.862-10.227-2.813-3.601 2.048-4.86 6.626-2.813 10.227l62.264 109.497c3.027 5.322 2.995 11.917-.085 17.211-3.078 5.292-8.794 8.58-14.919 8.58h-197.41c-4.143 0-7.5 3.357-7.5 7.5s3.357 7.5 7.5 7.5h39.294l32.985 58.006h-197.215l32.985-58.006h58.627c4.143 0 7.5-3.357 7.5-7.5s-3.357-7.5-7.5-7.5h-50.097l19.631-34.52h218.639c2.671 0 5.14-1.42 6.482-3.729 1.344-2.309 1.357-5.157.037-7.479l-111.5-196.08c-1.333-2.345-3.822-3.793-6.52-3.793s-5.187 1.448-6.52 3.793l-34.672 60.974-19.857-34.915 46.045-80.974c3.062-5.383 8.811-8.728 15.004-8.728s11.942 3.345 15.004 8.728l75.311 132.439c2.047 3.601 6.627 4.86 10.227 2.813 3.601-2.048 4.86-6.626 2.813-10.227l-75.311-132.44c-5.723-10.062-16.468-16.313-28.043-16.313s-22.321 6.251-28.043 16.313l-41.634 73.216-41.634-73.216c-5.723-10.062-16.468-16.313-28.043-16.313s-22.32 6.251-28.043 16.313l-154.062 270.931c-5.658 9.949-5.598 22.275.157 32.168 5.754 9.894 16.438 16.039 27.886 16.039h83.895l-42.261 74.318c-5.658 9.949-5.598 22.275.157 32.169 5.754 9.894 16.439 16.039 27.886 16.039h308.125c11.445 0 22.13-6.146 27.886-16.038 5.754-9.894 5.814-22.22.157-32.169l-42.261-74.319h83.895c11.447 0 22.132-6.146 27.885-16.038 5.755-9.894 5.815-22.22.157-32.168zm-280.713-16.314 28.931-50.877 28.931 50.877zm98.608-173.408 98.608 173.408h-65.129l-66.044-116.142zm-293.416 222.928c-6.125 0-11.841-3.288-14.92-8.581s-3.111-11.888-.084-17.211l154.063-270.93c3.062-5.384 8.811-8.729 15.004-8.729s11.942 3.345 15.004 8.728l140.573 247.203h-39.715l-109.343-192.288c-1.333-2.345-3.822-3.793-6.52-3.793s-5.187 1.448-6.52 3.793l-24.98 43.929c-2.048 3.601-.789 8.179 2.813 10.227 3.599 2.048 8.179.788 10.227-2.813l18.461-32.463 32.564 57.267-66.044 116.142h-65.129l63.668-111.964c2.048-3.601.788-8.179-2.813-10.227-3.6-2.05-8.18-.789-10.227 2.813l-70.04 123.17c-1.32 2.321-1.307 5.17.037 7.479 1.343 2.309 3.812 3.729 6.482 3.729h69.492l-19.63 34.52h-92.423zm392.805 96.733c3.026 5.323 2.994 11.919-.084 17.212-3.079 5.293-8.797 8.581-14.92 8.581h-308.125c-6.124 0-11.841-3.288-14.919-8.581-3.08-5.294-3.112-11.889-.085-17.212l140.583-247.222 19.857 34.92-109.393 192.368c-1.32 2.321-1.307 5.17.037 7.479 1.343 2.309 3.812 3.729 6.482 3.729h223c2.671 0 5.14-1.42 6.482-3.729 1.344-2.309 1.357-5.157.037-7.479l-35.142-61.799h39.712z" fill="#000000" data-original="#000000"></path>
      </g>
    </g>
  </symbol>
  <symbol xmlns="http://www.w3.org/2000/svg" version="1.1" xmlns:xlink="http://www.w3.org/1999/xlink" xmlnsSvgjs="http://svgjs.com/svgjs" x="0" y="0" xml:space="preserve" viewBox="0 0 512 512" id="logo">
    <g>
      <g xmlns="http://www.w3.org/2000/svg">
        <g>
          <path d="m447.773 86.438c-2.745-3.104-7.485-3.393-10.587-.647-3.103 2.745-3.392 7.485-.647 10.587 38.989 44.061 60.461 100.75 60.461 159.622 0 132.888-108.112 241-241 241s-241-108.112-241-241 108.112-241 241-241c57.882 0 113.839 20.825 157.563 58.64 3.132 2.71 7.868 2.368 10.579-.767 2.71-3.133 2.366-7.869-.767-10.579-46.449-40.171-105.891-62.294-167.375-62.294-68.38 0-132.667 26.629-181.02 74.98-48.351 48.352-74.98 112.64-74.98 181.02s26.629 132.667 74.98 181.02c48.353 48.351 112.64 74.98 181.02 74.98s132.667-26.629 181.02-74.98c48.351-48.353 74.98-112.64 74.98-181.02 0-62.537-22.81-122.755-64.227-169.562z" fill="#000000" data-original="#000000"></path>
          <path d="m379.096 366.755c3.199 2.631 7.926 2.17 10.556-1.032 25.323-30.811 39.268-69.778 39.268-109.723 0-95.349-77.571-172.92-172.92-172.92s-172.92 77.571-172.92 172.92 77.571 172.92 172.92 172.92c39.58 0 78.272-13.725 108.95-38.646 3.216-2.611 3.704-7.335 1.093-10.55s-7.336-3.705-10.55-1.093c-13.001 10.561-27.58 18.916-43.083 24.842v-91.063h91.075c-6.032 15.783-14.586 30.604-25.422 43.789-2.629 3.2-2.167 7.926 1.033 10.556zm-100.586-267.064c6.433.922 12.74 2.233 18.9 3.909v103.49c0 4.143 3.357 7.5 7.5 7.5h103.49c1.676 6.16 2.987 12.468 3.909 18.9h-133.799zm124.986 99.899h-91.086v-91.086c41.772 16.03 75.056 49.314 91.086 91.086zm-203.906-91.086v29.168c0 4.143 3.357 7.5 7.5 7.5s7.5-3.357 7.5-7.5v-34.072c6.16-1.676 12.468-2.987 18.9-3.909v133.799h-133.799c.922-6.433 2.233-12.74 3.909-18.9h103.49c4.143 0 7.5-3.357 7.5-7.5v-36.095c0-4.143-3.357-7.5-7.5-7.5s-7.5 3.357-7.5 7.5v28.595h-91.086c16.03-41.772 49.314-75.056 91.086-91.086zm33.9 303.805c-6.433-.922-12.74-2.233-18.9-3.909v-103.49c0-4.143-3.357-7.5-7.5-7.5h-103.49c-1.676-6.16-2.987-12.468-3.909-18.9h133.799zm-124.986-99.899h91.086v91.086c-41.772-16.03-75.056-49.314-91.086-91.086zm139.986 101.327v-142.727c0-4.143-3.357-7.5-7.5-7.5h-142.727c-.117-2.489-.183-4.992-.183-7.51s.066-5.021.183-7.51h142.727c4.143 0 7.5-3.357 7.5-7.5v-142.727c2.489-.117 4.992-.183 7.51-.183s5.021.066 7.51.183v142.727c0 4.143 3.357 7.5 7.5 7.5h142.727c.117 2.489.183 4.992.183 7.51 0 2.508-.066 5.012-.186 7.51h-142.724c-4.143 0-7.5 3.357-7.5 7.5v142.724c-2.498.12-5.002.187-7.51.187-2.518-.001-5.021-.067-7.51-.184zm56.42-116.327c-4.143 0-7.5 3.357-7.5 7.5v103.453c-6.205 1.689-12.517 3.002-18.9 3.926v-133.779h133.781c-.923 6.384-2.234 12.696-3.921 18.9z" fill="#000000" data-original="#000000"></path>
          <path d="m235.636 45.059 1.771-.637 11.726 26.604c1.199 2.72 3.891 4.475 6.863 4.475s5.664-1.755 6.863-4.476l11.725-26.603 1.771.637c3.896 1.397 8.194-.622 9.595-4.522 1.4-3.898-.624-8.193-4.522-9.595l-8.35-3c-3.707-1.33-7.811.431-9.399 4.034l-7.682 17.429-7.683-17.43c-1.589-3.603-5.691-5.363-9.399-4.033l-8.35 3c-3.898 1.401-5.923 5.696-4.522 9.595s5.694 5.922 9.593 4.522z" fill="#000000" data-original="#000000"></path>
          <path d="m271 448c0-4.143-3.357-7.5-7.5-7.5h-15c-4.143 0-7.5 3.357-7.5 7.5s3.357 7.5 7.5 7.5v17.58c-4.143 0-7.5 3.357-7.5 7.5s3.357 7.5 7.5 7.5h15c4.143 0 7.5-3.357 7.5-7.5s-3.357-7.5-7.5-7.5v-17.58c4.143 0 7.5-3.357 7.5-7.5z" fill="#000000" data-original="#000000"></path>
          <path d="m484.054 238.919-3-8.351c-1.4-3.898-5.694-5.921-9.595-4.522-3.897 1.4-5.923 5.696-4.522 9.595l.637 1.771-26.603 11.725c-2.721 1.199-4.476 3.891-4.476 6.863s1.755 5.664 4.476 6.863l26.603 11.725-.637 1.771c-1.4 3.898.625 8.194 4.522 9.595.838.301 1.694.443 2.536.443 3.075 0 5.959-1.905 7.059-4.966l3-8.351c1.331-3.706-.431-7.811-4.034-9.399l-17.429-7.681 17.429-7.682c3.603-1.589 5.365-5.693 4.034-9.399z" fill="#000000" data-original="#000000"></path>
          <path d="m31.415 241.005c-4.143 0-7.5 3.357-7.5 7.5v15c0 4.143 3.357 7.5 7.5 7.5s7.5-3.357 7.5-7.5h17.58c0 4.143 3.357 7.5 7.5 7.5s7.5-3.357 7.5-7.5v-15c0-4.143-3.357-7.5-7.5-7.5s-7.5 3.357-7.5 7.5h-17.58c0-4.143-3.357-7.5-7.5-7.5z" fill="#000000" data-original="#000000"></path>
          <path d="m125.539 404.567c1.919 0 3.839-.732 5.304-2.196 2.929-2.93 2.929-7.678 0-10.607l-10.606-10.606c-2.93-2.928-7.678-2.928-10.607 0-2.928 2.929-2.929 7.677 0 10.607l-12.431 12.431c-2.93-2.927-7.677-2.927-10.607 0-2.929 2.93-2.929 7.678 0 10.607l10.606 10.606c1.465 1.464 3.385 2.196 5.304 2.196s3.839-.732 5.304-2.196c2.928-2.929 2.929-7.677 0-10.607l12.431-12.431c1.464 1.464 3.383 2.196 5.302 2.196z" fill="#000000" data-original="#000000"></path>
          <path d="m414.803 86.591c-2.93-2.928-7.678-2.928-10.607 0-2.928 2.929-2.929 7.677 0 10.607l-12.431 12.431c-2.93-2.927-7.677-2.927-10.607 0-2.929 2.93-2.929 7.678 0 10.607l10.606 10.606c1.465 1.464 3.385 2.196 5.304 2.196s3.839-.732 5.304-2.196c2.928-2.929 2.929-7.677 0-10.607l12.431-12.431c1.465 1.463 3.385 2.196 5.303 2.196 1.919 0 3.839-.732 5.304-2.196 2.929-2.93 2.929-7.678 0-10.607z" fill="#000000" data-original="#000000"></path>
          <path d="m107.805 86.591c-2.93-2.928-7.678-2.928-10.607 0l-10.607 10.606c-2.929 2.93-2.929 7.678 0 10.607 1.465 1.464 3.385 2.196 5.304 2.196s3.838-.732 5.303-2.196l12.431 12.431c-2.928 2.93-2.928 7.677 0 10.607 1.465 1.464 3.385 2.196 5.304 2.196s3.839-.732 5.304-2.196l10.606-10.606c2.929-2.93 2.929-7.678 0-10.607-2.929-2.927-7.677-2.928-10.607 0l-12.431-12.431c2.928-2.93 2.928-7.678 0-10.607z" fill="#000000" data-original="#000000"></path>
          <path d="m404.195 425.409c1.465 1.464 3.385 2.196 5.304 2.196s3.839-.732 5.304-2.196l10.606-10.606c2.929-2.93 2.929-7.678 0-10.607-2.929-2.927-7.677-2.928-10.607 0l-12.431-12.431c2.928-2.93 2.928-7.677 0-10.607-2.93-2.928-7.678-2.928-10.607 0l-10.606 10.606c-2.929 2.93-2.929 7.678 0 10.607 1.465 1.464 3.385 2.196 5.304 2.196s3.838-.732 5.303-2.196l12.431 12.431c-2.929 2.93-2.929 7.678-.001 10.607z" fill="#000000" data-original="#000000"></path>
          <path d="m345.356 424.608c-6.294-2.607-13.225-2.607-19.517 0-12.99 5.381-19.182 20.327-13.8 33.317 2.605 6.292 7.507 11.193 13.8 13.8 3.146 1.304 6.452 1.955 9.758 1.955 3.307 0 6.612-.651 9.759-1.955 12.99-5.381 19.182-20.327 13.8-33.317-2.605-6.292-7.507-11.193-13.8-13.8zm-5.74 33.26c-2.592 1.072-5.444 1.072-8.036 0-2.591-1.073-4.609-3.092-5.683-5.683-2.216-5.35.334-11.504 5.683-13.72 1.296-.536 2.657-.805 4.019-.805s2.722.269 4.018.805c2.591 1.073 4.609 3.092 5.683 5.683 2.215 5.35-.335 11.504-5.684 13.72z" fill="#000000" data-original="#000000"></path>
          <path d="m166.644 87.392c3.146 1.304 6.452 1.955 9.758 1.955 3.307 0 6.612-.651 9.759-1.955 12.99-5.381 19.182-20.327 13.8-33.317-2.605-6.292-7.507-11.193-13.8-13.8-6.294-2.607-13.225-2.607-19.517 0-12.99 5.381-19.182 20.327-13.8 33.317 2.605 6.292 7.507 11.193 13.8 13.8zm5.74-33.26c1.296-.536 2.657-.805 4.019-.805s2.722.269 4.018.805c2.591 1.073 4.609 3.092 5.683 5.683 2.216 5.35-.334 11.504-5.683 13.72-2.592 1.072-5.444 1.072-8.036 0-2.591-1.073-4.609-3.092-5.683-5.683-2.217-5.35.333-11.504 5.682-13.72z" fill="#000000" data-original="#000000"></path>
          <path d="m73.035 158.746c-12.657-5.244-27.212.79-32.451 13.442l-2.805 6.771c-.762 1.838-.762 3.902 0 5.74.761 1.838 2.221 3.298 4.059 4.059l32.035 13.27c.938.39 1.911.573 2.867.573 2.942 0 5.735-1.743 6.932-4.632l2.805-6.771c5.242-12.652-.789-27.21-13.442-32.452zm-.352 26.553-18.174-7.528c2.131-4.903 7.826-7.218 12.786-5.167 4.959 2.054 7.35 7.721 5.388 12.695z" fill="#000000" data-original="#000000"></path>
          <path d="m457.853 360.46c.976 0 1.951-.19 2.87-.571 1.838-.761 3.298-2.221 4.059-4.059l2.805-6.771c2.54-6.129 2.54-12.881.001-19.01-2.539-6.13-7.313-10.903-13.442-13.441-6.128-2.541-12.88-2.54-19.01-.001s-10.903 7.313-13.441 13.442l-2.805 6.771c-1.586 3.827.231 8.214 4.059 9.799l32.035 13.27c.917.381 1.893.571 2.869.571zm-4.061-17.3-18.174-7.528c1.021-2.353 2.882-4.184 5.257-5.167 2.428-1.006 5.102-1.006 7.529 0s4.318 2.896 5.324 5.324c.985 2.375 1.005 4.985.064 7.371z" fill="#000000" data-original="#000000"></path>
          <path d="m186.584 443.184c.938.39 1.91.573 2.867.573 2.943 0 5.735-1.744 6.932-4.632 1.586-3.827-.231-8.214-4.059-9.799l-13.858-5.74c-3.824-1.587-8.214.232-9.799 4.059-1.586 3.827.231 8.214 4.059 9.799l-6.727 16.242c-3.823-1.588-8.213.231-9.799 4.059s.231 8.214 4.059 9.799l13.858 5.74c.938.39 1.91.573 2.867.573 2.943 0 5.735-1.744 6.932-4.632 1.586-3.827-.231-8.214-4.059-9.799z" fill="#000000" data-original="#000000"></path>
          <path d="m325.416 68.816c-3.825-1.588-8.214.231-9.799 4.059-1.586 3.827.231 8.214 4.059 9.799l13.858 5.74c.938.39 1.91.573 2.867.573 2.943 0 5.735-1.744 6.932-4.632 1.586-3.827-.231-8.214-4.059-9.799l6.728-16.242c.938.39 1.91.573 2.867.573 2.943 0 5.735-1.744 6.932-4.632 1.586-3.827-.231-8.214-4.059-9.799l-6.925-2.869c-.001 0-.002-.001-.003-.002s-.002-.001-.004-.001l-6.926-2.869c-3.823-1.587-8.213.232-9.799 4.059s.231 8.214 4.059 9.799h.001z" fill="#000000" data-original="#000000"></path>
          <path d="m423.586 178.466 5.74 13.858c1.196 2.889 3.988 4.632 6.932 4.632.956 0 1.929-.185 2.867-.573 3.827-1.585 5.645-5.972 4.059-9.799l16.242-6.728c1.196 2.889 3.988 4.632 6.932 4.632.956 0 1.929-.185 2.867-.573 3.827-1.585 5.645-5.972 4.059-9.799l-5.74-13.858c-1.585-3.827-5.973-5.646-9.799-4.059-3.827 1.585-5.645 5.972-4.059 9.799l-16.242 6.727c-1.585-3.827-5.971-5.644-9.799-4.059-3.828 1.586-5.645 5.973-4.059 9.8z" fill="#000000" data-original="#000000"></path>
          <path d="m74.557 339.274c1.196 2.889 3.988 4.632 6.932 4.632.956 0 1.929-.185 2.867-.573 3.827-1.585 5.645-5.972 4.059-9.799l-5.74-13.858c-1.585-3.827-5.973-5.646-9.799-4.059-3.827 1.585-5.645 5.972-4.059 9.799l-16.242 6.728v-.001c-1.585-3.827-5.971-5.644-9.799-4.059-3.827 1.585-5.645 5.972-4.059 9.799l2.869 6.926c0 .001.001.002.001.003s.001.001.001.002l2.869 6.927c1.196 2.889 3.988 4.632 6.932 4.632.956 0 1.929-.185 2.867-.573 3.827-1.585 5.645-5.972 4.059-9.799z" fill="#000000" data-original="#000000"></path>
        </g>
      </g>
    </g>
  </symbol>
  <symbol xmlns="http://www.w3.org/2000/svg" version="1.1" xmlns:xlink="http://www.w3.org/1999/xlink" xmlnsSvgjs="http://svgjs.com/svgjs" x="0" y="0" xml:space="preserve" viewBox="0 0 512 512" id="f">
    <g>
      <path xmlns="http://www.w3.org/2000/svg" d="m388 0h-264c-33.084 0-60 26.916-60 60v392c0 33.084 26.916 60 60 60h264c33.084 0 60-26.916 60-60v-392c0-33.084-26.916-60-60-60zm20 452c0 11.028-8.972 20-20 20h-264c-11.028 0-20-8.972-20-20v-392c0-11.028 8.972-20 20-20h264c11.028 0 20 8.972 20 20zm-184-223.716v69.432l90.858-90.858 28.284 28.284-119.142 119.142v77.716h-40v-352h40v91.716l90.858-90.858 28.284 28.284z" fill="#000000" data-original="#000000"></path>
    </g>
  </symbol>
  <symbol xmlns="http://www.w3.org/2000/svg" version="1.1" xmlns:xlink="http://www.w3.org/1999/xlink" xmlnsSvgjs="http://svgjs.com/svgjs" x="0" y="0" xml:space="preserve" viewBox="0 0 512.001 512.001" id="mjolnir">
    <g>
      <g xmlns="http://www.w3.org/2000/svg">
        <path d="m294.996 174.142c-7.738 16.335-12.705 41.617-12.705 69.988 0 25.855 4.118 49.142 10.709 65.424h-74c6.591-16.282 10.709-39.569 10.709-65.424 0-28.371-4.967-53.653-12.705-69.988v-18.001h77.991v18.001z" fill="#756f6f" data-original="#756f6f"></path>
        <path d="m294.996 156.141v18.001c-4.628 9.775-8.268 22.756-10.444 37.69-8.608 5.243-18.383 7.992-28.551 7.992s-19.944-2.749-28.551-7.992c-2.176-14.934-5.816-27.915-10.444-37.69v-18.001z" fill="#5b5555" data-original="#5b5555"></path>
        <g>
          <path d="m28.576 19.271c67.069 46.206 145.711 70.629 227.425 70.629s160.355-24.423 227.425-70.629l21.075 30.592c-73.296 50.496-159.225 77.186-248.5 77.186s-175.204-26.69-248.5-77.186z" fill="#756f6f" data-original="#756f6f"></path>
        </g>
        <g>
          <path d="m304.345 284.14 10.593 40.075h-117.874l10.593-40.075c1.231-4.657 5.444-7.902 10.262-7.902h76.165c4.816 0 9.03 3.245 10.261 7.902z" fill="#b9acac" data-original="#b9acac"></path>
          <path d="m314.941 324.213h-31.67l-10.59-40.07c-1.23-4.66-5.45-7.91-10.26-7.91h31.66c4.82 0 9.03 3.25 10.26 7.91z" fill="#9e9797" data-original="#9e9797"></path>
        </g>
        <g fill="#f8f3f1">
          <path d="m347.8 131.392-40.075 10.593v-86.032l40.075 10.593c4.657 1.231 7.902 5.444 7.902 10.261v44.323c0 4.818-3.244 9.031-7.902 10.262z" fill="#f8f3f1" data-original="#f8f3f1"></path>
          <path d="m164.201 131.392 40.075 10.593v-86.032l-40.075 10.593c-4.657 1.231-7.902 5.444-7.902 10.261v44.323c.001 4.818 3.245 9.031 7.902 10.262z" fill="#f8f3f1" data-original="#f8f3f1"></path>
        </g>
        <path d="m196.519 45.045v119.336c0 4.383 2.691 8.328 6.786 9.892 11.833 4.52 22.8 10.481 32.566 17.681 5.835 4.302 12.881 6.642 20.13 6.642 7.249 0 14.295-2.34 20.13-6.642 9.766-7.2 20.733-13.162 32.566-17.681 4.095-1.564 6.786-5.509 6.786-9.892v-119.336c0-5.862-4.752-10.614-10.614-10.614h-97.737c-5.861 0-10.613 4.752-10.613 10.614z" fill="#b9acac" data-original="#b9acac"></path>
        <path d="m315.481 45.045v119.332c0 4.384-2.685 8.332-6.782 9.892-11.835 4.522-22.799 10.487-32.564 17.683-2.919 2.155-6.145 3.811-9.542 4.936-3.396 1.125-6.963 1.709-10.593 1.709-7.249 0-14.297-2.335-20.135-6.644-1.666-1.231-3.365-2.42-5.105-3.577 1.316-.276 2.611-.616 3.885-1.04 3.396-1.125 6.612-2.781 9.531-4.936 9.765-7.196 20.729-13.161 32.563-17.683 4.097-1.56 6.793-5.509 6.793-9.892v-109.78c0-5.859-4.755-10.614-10.614-10.614h31.948c5.86 0 10.615 4.755 10.615 10.614z" fill="#9e9797" data-original="#9e9797"></path>
        <path d="m89.746 327.615v102.415c0 5.509 4.211 10.108 9.7 10.574 18.036 1.532 57.66 6.038 88.058 17.683 29.881 11.447 52.335 25.618 62.5 32.604 3.616 2.485 8.379 2.485 11.995 0 10.165-6.986 32.619-21.157 62.5-32.604 30.398-11.645 70.022-16.152 88.058-17.683 5.489-.466 9.7-5.065 9.7-10.574v-102.415c0-5.862-4.752-10.614-10.614-10.614h-311.283c-5.862 0-10.614 4.752-10.614 10.614z" fill="#f3eae6" data-original="#f3eae6"></path>
        <path d="m422.251 327.613v102.42c0 5.51-4.21 10.1-9.69 10.57-6.23.53-15.03 1.41-25.14 2.82 1.86-1.92 2.99-4.53 2.99-7.39v-108.42c0-5.86-4.75-10.61-10.61-10.61h31.84c5.86 0 10.61 4.75 10.61 10.61z" fill="#e0d3ce" data-original="#e0d3ce"></path>
        <path d="m256.001 456.837c-13.438-8.293-33.152-19.108-57.107-28.284-21.912-8.395-47.477-13.437-68.196-16.413-5.23-.751-9.111-5.222-9.111-10.506v-42.176c0-5.862 4.752-10.614 10.614-10.614h247.599c5.862 0 10.614 4.752 10.614 10.614v42.176c0 5.283-3.881 9.754-9.111 10.506-20.718 2.976-46.283 8.019-68.196 16.413-23.954 9.176-43.668 19.991-57.106 28.284z" fill="#9e9797" data-original="#9e9797"></path>
        <g>
          <path d="m510.677 45.608c-2.351-3.41-7.02-4.272-10.431-1.921-41.967 28.912-88.054 49.876-137.045 62.406v-22.896c44.433-12.035 86.309-31.451 124.479-57.75 3.411-2.35 4.271-7.02 1.921-10.431-2.351-3.411-7.02-4.272-10.431-1.921-36.264 24.983-75.996 43.509-118.131 55.133-2.321-4.311-6.352-7.625-11.323-8.936l-26.733-7.061v-7.187c0-9.988-8.126-18.114-18.114-18.114h-97.736c-9.988 0-18.114 8.126-18.114 18.114v7.187l-26.73 7.06c-4.972 1.312-9.005 4.626-11.326 8.937-42.135-11.623-81.867-30.149-118.132-55.132-3.412-2.352-8.082-1.49-10.431 1.921-2.35 3.411-1.49 8.081 1.921 10.431 38.172 26.298 80.047 45.713 124.479 57.748v22.899c-48.992-12.532-95.078-33.496-137.044-62.408-3.412-2.352-8.082-1.49-10.431 1.921-2.35 3.411-1.49 8.081 1.921 10.431 44.495 30.655 93.467 52.687 145.573 65.535.195 8.031 5.67 15.014 13.466 17.07l26.733 7.061v18.675c0 7.456 4.666 14.246 11.61 16.897 4.691 1.792 9.226 3.835 13.605 6.09.053.241.117.482.195.721 5.019 15.453 7.783 35.356 7.783 56.044 0 8.418-.471 16.668-1.355 24.6h-2.935c-8.213 0-15.414 5.55-17.511 13.493l-7.211 27.275h-92.839c-9.988 0-18.114 8.126-18.114 18.113v102.414c0 9.487 7.122 17.246 16.565 18.047 15.868 1.349 56.015 5.725 86.009 17.215 28.878 11.063 50.573 24.661 60.935 31.781 3.065 2.106 6.655 3.159 10.246 3.159 3.59 0 7.182-1.053 10.245-3.159 10.362-7.12 32.057-20.719 60.936-31.781 29.995-11.49 70.141-15.866 86.009-17.215 9.444-.801 16.565-8.56 16.565-18.047v-102.412c0-9.987-8.126-18.113-18.114-18.113h-31.979c-4.142 0-7.5 3.357-7.5 7.5s3.358 7.5 7.5 7.5h31.979c1.717 0 3.114 1.396 3.114 3.113v102.414c0 1.631-1.218 2.964-2.834 3.102-20.5 1.741-59.466 6.415-90.106 18.152-30.325 11.617-53.155 25.93-64.065 33.428-1.063.73-2.436.73-3.499 0-10.91-7.498-33.74-21.811-64.064-33.428-30.64-11.737-69.606-16.411-90.106-18.152-1.616-.138-2.834-1.471-2.834-3.102v-102.414c0-1.717 1.397-3.113 3.114-3.113h245.979c4.142 0 7.5-3.357 7.5-7.5s-3.358-7.5-7.5-7.5h-27.536l-7.21-27.272c-2.097-7.946-9.298-13.496-17.511-13.496h-2.935c-.884-7.932-1.355-16.182-1.355-24.6 0-20.688 2.764-40.591 7.783-56.044.078-.24.142-.48.195-.721 4.378-2.255 8.913-4.298 13.604-6.089 6.945-2.652 11.611-9.442 11.611-16.898v-18.675l26.73-7.06c7.798-2.057 13.273-9.04 13.469-17.07 52.106-12.848 101.078-34.882 145.573-65.536 3.408-2.352 4.268-7.022 1.918-10.433zm-235.862 195.689h-37.628c-.173-14.904-1.704-29.42-4.423-42.356 6.897 4.687 14.896 7.156 23.237 7.156s16.34-2.469 23.237-7.155c-2.719 12.935-4.25 27.451-4.423 42.355zm22.275 44.763 6.197 23.441h-94.572l6.198-23.444c.361-1.368 1.598-2.324 3.008-2.324h76.16c1.41 0 2.647.956 3.009 2.327zm-61.149-17.327c.423-4.079.74-8.228.947-12.437h38.226c.208 4.209.524 8.357.947 12.437zm72.042-104.352c0 1.277-.788 2.437-1.962 2.886-12.453 4.757-24.007 11.032-34.341 18.651-4.596 3.388-10.017 5.179-15.679 5.179s-11.083-1.791-15.679-5.18c-10.334-7.618-21.888-13.894-34.342-18.651-1.173-.448-1.961-1.607-1.961-2.885v-52.705c0-4.143-3.358-7.5-7.5-7.5s-7.5 3.357-7.5 7.5v18.516l-22.904-6.05c-1.362-.359-2.313-1.597-2.313-3.008v-44.33c0-1.411.951-2.648 2.316-3.009l22.902-6.049v10.606c0 4.143 3.358 7.5 7.5 7.5s7.5-3.357 7.5-7.5v-33.307c0-1.717 1.397-3.114 3.114-3.114h97.736c1.717 0 3.114 1.397 3.114 3.114v119.336zm40.218-43.247c0 1.411-.951 2.648-2.316 3.009l-22.902 6.049v-62.447l22.904 6.05c1.362.359 2.313 1.597 2.313 3.008v44.331z" fill="#000000" data-original="#000000"></path>
          <path d="m167.006 341.344h-34.804c-9.988 0-18.114 8.126-18.114 18.113v42.177c0 8.949 6.683 16.657 15.544 17.93 25.989 3.732 49.011 9.263 66.58 15.993 24.024 9.202 43.632 20.122 55.851 27.663 1.208.745 2.573 1.117 3.939 1.117s2.731-.373 3.938-1.117c12.22-7.541 31.829-18.462 55.852-27.663 17.568-6.73 40.591-12.261 66.579-15.993 8.862-1.272 15.544-8.98 15.544-17.93v-42.177c0-9.987-8.126-18.113-18.114-18.113h-179.472c-4.142 0-7.5 3.357-7.5 7.5s3.358 7.5 7.5 7.5h179.471c1.717 0 3.114 1.396 3.114 3.113v42.177c0 1.563-1.125 2.859-2.677 3.082-27.463 3.944-50.951 9.607-69.812 16.833-22.667 8.683-41.57 18.826-54.424 26.513-12.853-7.686-31.755-17.829-54.424-26.513-18.86-7.226-42.349-12.889-69.813-16.833-1.551-.223-2.676-1.519-2.676-3.082v-42.177c0-1.717 1.397-3.113 3.114-3.113h34.804c4.142 0 7.5-3.357 7.5-7.5s-3.358-7.5-7.5-7.5z" fill="#000000" data-original="#000000"></path>
          <path d="m273.664 397.555c-3.643-1.976-8.194-.621-10.167 3.021-1.707 3.15-4.261 6.125-7.498 8.759-3.233-2.632-5.786-5.606-7.496-8.76-1.974-3.642-6.525-4.991-10.168-3.02-3.641 1.975-4.993 6.526-3.019 10.168 3.588 6.619 9.359 12.554 16.688 17.165 1.221.768 2.607 1.151 3.994 1.151s2.773-.384 3.994-1.152c7.336-4.615 13.108-10.551 16.692-17.165 1.975-3.641.622-8.193-3.02-10.167z" fill="#000000" data-original="#000000"></path>
          <path d="m212.294 394.039c1.919 0 3.839-.732 5.303-2.196 2.929-2.93 2.929-7.678 0-10.607l-7.247-7.247c-2.929-2.928-7.678-2.928-10.606 0-2.929 2.93-2.929 7.678 0 10.607l7.247 7.247c1.464 1.463 3.383 2.196 5.303 2.196z" fill="#000000" data-original="#000000"></path>
          <path d="m169.927 391.843c1.464 1.464 3.384 2.196 5.303 2.196s3.839-.732 5.303-2.196l7.247-7.247c2.929-2.93 2.929-7.678 0-10.607-2.929-2.928-7.678-2.928-10.606 0l-7.247 7.247c-2.929 2.929-2.929 7.677 0 10.607z" fill="#000000" data-original="#000000"></path>
          <path d="m336.771 394.039c1.919 0 3.839-.732 5.303-2.196 2.929-2.93 2.929-7.678 0-10.607l-7.247-7.247c-2.929-2.928-7.678-2.928-10.606 0-2.929 2.93-2.929 7.678 0 10.607l7.247 7.247c1.464 1.463 3.384 2.196 5.303 2.196z" fill="#000000" data-original="#000000"></path>
          <path d="m305.011 391.843 7.247-7.247c2.929-2.93 2.929-7.678 0-10.607-2.929-2.928-7.678-2.928-10.606 0l-7.247 7.247c-2.929 2.93-2.929 7.678 0 10.607 1.464 1.464 3.384 2.196 5.303 2.196s3.839-.733 5.303-2.196z" fill="#000000" data-original="#000000"></path>
          <path d="m272.282 369.047h-32.562c-4.142 0-7.5 3.357-7.5 7.5s3.358 7.5 7.5 7.5h32.563c4.142 0 7.5-3.357 7.5-7.5s-3.359-7.5-7.501-7.5z" fill="#000000" data-original="#000000"></path>
          <path d="m363.476 387.231c4.142 0 7.5-3.357 7.5-7.5s-3.358-7.5-7.5-7.5h-.109c-4.142 0-7.5 3.357-7.5 7.5s3.358 7.5 7.5 7.5z" fill="#000000" data-original="#000000"></path>
          <path d="m148.525 372.231c-4.142 0-7.5 3.357-7.5 7.5s3.358 7.5 7.5 7.5h.109c4.142 0 7.5-3.357 7.5-7.5s-3.358-7.5-7.5-7.5z" fill="#000000" data-original="#000000"></path>
          <path d="m256.001 132.681c-4.142 0-7.5 3.357-7.5 7.5v14.937c0 4.143 3.358 7.5 7.5 7.5s7.5-3.357 7.5-7.5v-14.937c0-4.142-3.358-7.5-7.5-7.5z" fill="#000000" data-original="#000000"></path>
          <path d="m276.012 107.67c-2.929-2.928-7.678-2.928-10.606 0-2.929 2.93-2.929 7.678 0 10.607l15.383 15.383c1.464 1.464 3.384 2.196 5.303 2.196s3.839-.732 5.303-2.196c2.929-2.93 2.929-7.678 0-10.607z" fill="#000000" data-original="#000000"></path>
          <path d="m276.012 72.585c-2.929-2.928-7.678-2.928-10.606 0-2.929 2.93-2.929 7.678 0 10.607l15.383 15.383c1.464 1.464 3.384 2.196 5.303 2.196s3.839-.732 5.303-2.196c2.929-2.93 2.929-7.678 0-10.607z" fill="#000000" data-original="#000000"></path>
          <path d="m246.596 107.67c-2.929-2.928-7.678-2.928-10.606 0l-15.383 15.383c-2.929 2.93-2.929 7.678 0 10.607 1.464 1.464 3.384 2.196 5.303 2.196s3.839-.732 5.303-2.196l15.383-15.383c2.929-2.93 2.929-7.678 0-10.607z" fill="#000000" data-original="#000000"></path>
          <path d="m225.91 100.771c1.919 0 3.839-.732 5.303-2.196l15.383-15.383c2.929-2.93 2.929-7.678 0-10.607-2.929-2.928-7.678-2.928-10.606 0l-15.383 15.383c-2.929 2.93-2.929 7.678 0 10.607 1.464 1.464 3.384 2.196 5.303 2.196z" fill="#000000" data-original="#000000"></path>
        </g>
      </g>
    </g>
  </symbol>
  <symbol xmlns="http://www.w3.org/2000/svg" version="1.1" xmlns:xlink="http://www.w3.org/1999/xlink" xmlnsSvgjs="http://svgjs.com/svgjs" x="0" y="0" xml:space="preserve" viewBox="0 0 511.997 511.997" id="runes">
    <g>
      <g xmlns="http://www.w3.org/2000/svg">
        <g>
          <path d="m297.424 286.571-43.412 19.031c-1.897.832-4.007 1.046-6.033.613l-94.334-20.172c-4.141-.885-7.257-4.311-7.747-8.517l-21.215-181.942c-.186-1.599.021-3.219.603-4.72l20.047-51.638c.891-2.296 2.608-4.176 4.813-5.272l38.448-19.108c1.967-.977 4.203-1.272 6.355-.836l100.275 20.276c4.074.824 7.196 4.109 7.813 8.219l21.02 140.193c.18 1.203.137 2.429-.128 3.616l-20.829 93.36c-.685 3.072-2.793 5.634-5.676 6.897z" fill="#cdbfbb" data-original="#cdbfbb"></path>
          <path d="m323.928 186.317-20.827 93.355c-.682 3.073-2.796 5.632-5.681 6.896l-43.412 19.038c-1.897.83-4.001 1.037-6.027.613l-22.664-4.851 33.749-14.8c2.885-1.265 4.989-3.823 5.681-6.896l20.827-93.355c.267-1.195.306-2.421.128-3.616l-21.023-140.195c-.613-4.11-3.734-7.4-7.815-8.22l-76.342-15.432 8.072-4.011c1.966-.978 4.199-1.265 6.353-.83l100.28 20.273c4.07.82 7.193 4.11 7.805 8.22l21.024 140.195c.178 1.196.139 2.421-.128 3.616z" fill="#b9acac" data-original="#b9acac"></path>
        </g>
        <g>
          <path d="m414.023 386.394-47.322 2.719c-2.068.119-4.121-.415-5.868-1.527l-81.402-51.765c-3.573-2.272-5.301-6.569-4.296-10.682l43.481-177.938c.382-1.564 1.141-3.01 2.209-4.214l36.777-41.423c1.635-1.842 3.899-3.006 6.348-3.265l42.696-4.521c2.184-.231 4.383.272 6.249 1.429l86.934 53.931c3.532 2.191 5.315 6.358 4.461 10.425l-29.124 138.737c-.25 1.191-.718 2.325-1.379 3.345l-52.041 80.26c-1.713 2.642-4.581 4.309-7.723 4.489z" fill="#cdbfbb" data-original="#cdbfbb"></path>
          <path d="m473.789 301.642-52.04 80.265c-1.718 2.639-4.582 4.305-7.727 4.486l-47.322 2.717c-2.067.117-4.116-.412-5.863-1.525l-19.568-12.435 36.8-2.115c3.145-.181 6.009-1.846 7.718-4.489l52.05-80.262c.654-1.022 1.127-2.153 1.37-3.348l29.126-138.727c.848-4.069-.933-8.241-4.463-10.427l-66.174-41.061 8.951-.943c2.184-.232 4.38.268 6.247 1.425l86.928 53.936c3.539 2.19 5.32 6.361 4.463 10.427l-29.117 138.73c-.252 1.193-.716 2.328-1.379 3.346z" fill="#b9acac" data-original="#b9acac"></path>
        </g>
        <g>
          <path d="m259.664 429.28-28.968 37.519c-1.266 1.639-3.015 2.84-5 3.431l-92.453 27.539c-4.058 1.209-8.435-.303-10.883-3.758l-105.869-149.48c-.93-1.314-1.526-2.835-1.734-4.431l-7.173-54.927c-.319-2.442.286-4.915 1.695-6.934l24.574-35.206c1.257-1.801 3.078-3.131 5.176-3.782l97.715-30.297c3.97-1.231 8.285.154 10.797 3.465l85.678 112.939c.735.969 1.285 2.066 1.622 3.235l26.496 91.913c.872 3.024.251 6.282-1.673 8.774z" fill="#cdbfbb" data-original="#cdbfbb"></path>
          <path d="m234.844 328.588 26.491 91.92c.875 3.023.256 6.278-1.669 8.771l-28.968 37.517c-1.267 1.638-3.018 2.843-5.003 3.432l-22.214 6.612 22.522-29.164c1.925-2.493 2.553-5.753 1.678-8.776l-26.5-91.915c-.335-1.168-.887-2.262-1.621-3.235l-85.674-112.943c-2.517-3.308-6.83-4.689-10.795-3.457l-74.387 23.056 5.147-7.373c1.265-1.806 3.082-3.137 5.18-3.788l97.715-30.289c3.965-1.233 8.287.144 10.795 3.457l85.683 112.939c.732.974 1.276 2.072 1.62 3.236z" fill="#b9acac" data-original="#b9acac"></path>
          <g>
            <path d="m174.324 210.15c1.465 1.464 3.385 2.196 5.304 2.196s3.839-.732 5.304-2.196l31.934-31.934v45.16c0 4.143 3.357 7.5 7.5 7.5s7.5-3.357 7.5-7.5v-45.159l31.933 31.933c1.465 1.464 3.385 2.196 5.304 2.196s3.839-.732 5.304-2.196c2.929-2.93 2.929-7.678 0-10.607l-39.433-39.433 39.433-39.433c2.929-2.93 2.929-7.678 0-10.607-2.93-2.928-7.678-2.928-10.607 0l-31.933 31.933v-45.161c0-4.143-3.357-7.5-7.5-7.5s-7.5 3.357-7.5 7.5v45.16l-31.934-31.934c-2.93-2.928-7.678-2.928-10.607 0-2.929 2.93-2.929 7.678 0 10.607l39.433 39.433-39.433 39.433c-2.931 2.931-2.931 7.679-.002 10.609z" fill="#000000" data-original="#000000"></path>
            <path d="m255.565 82.017c4.143 0 7.5-3.357 7.5-7.5s-3.357-7.5-7.5-7.5h-.103c-4.143 0-7.5 3.357-7.5 7.5s3.357 7.5 7.5 7.5z" fill="#000000" data-original="#000000"></path>
            <path d="m274.851 72.249h.103c4.143 0 7.5-3.357 7.5-7.5s-3.357-7.5-7.5-7.5h-.103c-4.143 0-7.5 3.357-7.5 7.5s3.358 7.5 7.5 7.5z" fill="#000000" data-original="#000000"></path>
            <path d="m213.699 249.574c-4.143 0-7.5 3.357-7.5 7.5s3.357 7.5 7.5 7.5h.102c4.143 0 7.5-3.357 7.5-7.5s-3.357-7.5-7.5-7.5z" fill="#000000" data-original="#000000"></path>
            <path d="m503.783 142.766-86.934-53.931c-3.264-2.025-7.164-2.915-10.994-2.516l-42.693 4.521c-4.318.456-8.285 2.496-11.168 5.744l-28.458 32.052-13.082-87.246c-1.08-7.203-6.603-13.013-13.743-14.458l-100.277-20.274c-3.768-.763-7.738-.237-11.178 1.472l-38.45 19.109c-3.889 1.934-6.895 5.228-8.464 9.272l-20.05 51.641c-1.019 2.628-1.385 5.497-1.06 8.302l4.152 35.604c.48 4.115 4.21 7.073 8.318 6.58 4.114-.479 7.061-4.204 6.58-8.318l-4.151-35.599c-.045-.387.006-.782.145-1.142l20.049-51.64c.215-.554.627-1.005 1.158-1.269l38.448-19.108c.47-.234 1.014-.307 1.531-.201l24.629 4.98-12.956 14.534c-2.756 3.092-2.484 7.832.608 10.589 1.43 1.274 3.212 1.901 4.987 1.901 2.064 0 4.12-.848 5.602-2.51l18.771-21.058c.004-.005.008-.01.012-.015l58.62 11.854c.979.197 1.734.993 1.883 1.979l15.434 102.934-34.444 140.956-18.014 7.898v-16.36l3.673-16.424c.904-4.042-1.641-8.052-5.683-8.956-4.043-.904-8.052 1.641-8.956 5.683l-3.854 17.232c-.12.537-.181 1.086-.181 1.637v19.391l-26.277-5.619-19.323-25.471c-2.503-3.298-7.207-3.943-10.509-1.442-3.3 2.504-3.945 7.209-1.442 10.509l41.201 54.309c.177.233.308.495.389.777l26.497 91.914c.209.726.058 1.516-.403 2.112l-28.969 37.52c-.306.397-.722.683-1.203.826l-92.453 27.539c-.974.289-2.031-.071-2.621-.905l-100.443-141.818 15.046-2.656c4.079-.72 6.802-4.61 6.082-8.689-.721-4.079-4.616-6.808-8.689-6.082l-18.981 3.351-6.473-49.578c-.077-.59.067-1.184.408-1.671l24.574-35.208c.301-.431.743-.754 1.246-.91l53.626-16.626 9.672 17.699c1.362 2.493 3.934 3.904 6.588 3.904 1.215 0 2.448-.296 3.59-.92 3.635-1.986 4.971-6.543 2.984-10.178l-8.218-15.037 29.473-9.138c.954-.298 1.999.039 2.601.834l24.386 32.146c2.504 3.3 7.208 3.945 10.509 1.442 3.3-2.504 3.945-7.208 1.442-10.509l-24.387-32.146c-2.281-3.006-5.432-5.103-8.903-6.135l-4.493-38.535c-.48-4.116-4.218-7.075-8.317-6.581-4.114.479-7.062 4.203-6.581 8.317l4.47 38.337-92.883 28.799c-3.672 1.138-6.906 3.501-9.105 6.651l-24.576 35.209c-2.484 3.561-3.543 7.892-2.981 12.196l7.173 54.931c.366 2.798 1.422 5.493 3.051 7.792l105.871 149.479c3.317 4.684 8.643 7.336 14.179 7.336 1.652 0 3.323-.236 4.965-.726l92.451-27.538c3.515-1.046 6.557-3.134 8.797-6.036l28.969-37.519c3.37-4.366 4.47-10.137 2.941-15.435l-26.495-91.913c-.596-2.065-1.557-3.98-2.854-5.69l-7.986-10.527 15.201 3.251c1.214.26 2.438.389 3.655.389 2.379 0 4.736-.492 6.959-1.466l15.103-6.621-4.279 17.51c-1.768 7.24 1.269 14.791 7.558 18.791l81.401 51.764c2.807 1.785 6.007 2.716 9.313 2.716.336 0 .674-.01 1.012-.029l47.322-2.72c5.508-.316 10.587-3.269 13.585-7.896l12.957-19.983c2.254-3.476 1.263-8.119-2.213-10.373-3.475-2.253-8.118-1.263-10.373 2.213l-12.958 19.984c-.41.633-1.105 1.036-1.859 1.08l-47.319 2.72c-.502.016-.991-.099-1.416-.369l-44.824-28.504 7.659-11.285c2.326-3.428 1.433-8.092-1.994-10.418-3.426-2.323-8.091-1.433-10.418 1.994l-7.911 11.656-23.915-15.208c-.861-.547-1.276-1.582-1.035-2.573l43.48-177.935c.092-.377.276-.729.533-1.019l36.778-41.423c.395-.444.937-.724 1.528-.786l34.03-3.603-4.899 13.184c-1.442 3.883.535 8.2 4.418 9.643.861.32 1.743.472 2.611.472 3.045 0 5.908-1.868 7.031-4.89l5.921-15.935 82.023 50.884c.847.526 1.278 1.535 1.074 2.511l-5.438 25.903-17.278-.979c-4.147-.233-7.679 2.929-7.913 7.063-.234 4.136 2.929 7.679 7.063 7.913l15.011.851-20.569 97.985c-.061.287-.172.558-.333.806l-21.013 32.407c-2.254 3.476-1.263 8.119 2.213 10.373s8.119 1.264 10.373-2.213l21.012-32.405c1.17-1.803 1.986-3.784 2.428-5.887l29.123-138.736c1.498-7.129-1.655-14.499-7.844-18.338z" fill="#000000" data-original="#000000"></path>
            <path d="m437.595 259.728-17.765-80.634c-.548-2.489-2.323-4.529-4.712-5.417-2.393-.89-5.066-.501-7.106 1.025l-66.106 49.472c-3.233 2.421-3.97 6.968-1.665 10.284l24.944 35.897-42.332 10.901c-4.012 1.032-6.426 5.122-5.393 9.133 1.033 4.012 5.126 6.431 9.133 5.393l38.875-10.01-5.84 15.717c-1.442 3.883.535 8.2 4.418 9.643.861.32 1.743.472 2.611.472 3.045 0 5.909-1.868 7.031-4.89l5.84-15.717 22.906 32.965c1.457 2.098 3.792 3.222 6.166 3.222 1.477 0 2.969-.436 4.272-1.342 3.402-2.364 4.243-7.037 1.88-10.438l-24.945-35.898 42.333-10.901c3.913-1.008 6.324-4.933 5.455-8.877zm-80.904-27.883 39.911-29.868-21.136 56.887zm32.836 32.244 21.137-56.888 10.726 48.684z" fill="#000000" data-original="#000000"></path>
            <path d="m360.293 163.723c.873.329 1.768.485 2.648.485 3.03 0 5.884-1.851 7.018-4.853 1.463-3.875-.492-8.203-4.367-9.666l-.096-.036c-3.875-1.461-8.202.493-9.666 4.367-1.463 3.875.492 8.203 4.367 9.666z" fill="#000000" data-original="#000000"></path>
            <path d="m361.251 336.529-.096-.035c-3.889-1.431-8.198.565-9.626 4.454-1.429 3.888.565 8.197 4.454 9.626l.096.035c.853.313 1.727.462 2.585.462 3.056 0 5.926-1.881 7.041-4.916 1.429-3.888-.565-8.197-4.454-9.626z" fill="#000000" data-original="#000000"></path>
            <path d="m387.798 159.01c.853.313 1.727.462 2.585.462 3.056 0 5.926-1.881 7.041-4.916 1.429-3.888-.565-8.197-4.454-9.626l-.096-.035c-3.89-1.432-8.197.565-9.626 4.454-1.429 3.888.565 8.197 4.454 9.626z" fill="#000000" data-original="#000000"></path>
            <path d="m184.5 327.781c-1.172-2.14-3.311-3.576-5.735-3.851l-54.778-6.204-5.912-10.818 44.296 5.018c4.104.457 7.83-2.492 8.296-6.608.467-4.115-2.492-7.83-6.608-8.296l-58.648-6.644c-2.771-.319-5.507.944-7.068 3.269s-1.699 5.324-.356 7.78l12.839 23.493-24.36 49.457c-1.077 2.188-1.023 4.765.145 6.906 1.169 2.142 3.306 3.581 5.729 3.858l54.833 6.285 11.496 21.035c1.362 2.493 3.934 3.904 6.588 3.904 1.215 0 2.448-.296 3.59-.92 3.635-1.986 4.971-6.543 2.984-10.178l-11.497-21.036 24.321-49.544c1.073-2.189 1.015-4.766-.155-6.906zm-79.874 43.67 14.992-30.439 18.749 34.307zm46.903-3.327-18.749-34.306 33.715 3.819z" fill="#000000" data-original="#000000"></path>
            <path d="m213.601 423.427c1.189 0 2.396-.284 3.519-.882l.09-.048c3.656-1.947 5.041-6.49 3.095-10.146-1.948-3.656-6.489-5.04-10.146-3.095l-.09.048c-3.656 1.947-5.041 6.49-3.095 10.146 1.35 2.534 3.944 3.977 6.627 3.977z" fill="#000000" data-original="#000000"></path>
            <path d="m197.884 432.833-.09.049c-3.64 1.979-4.986 6.532-3.009 10.171 1.36 2.502 3.937 3.92 6.597 3.92 1.209 0 2.437-.293 3.574-.911l.09-.049c3.64-1.979 4.986-6.532 3.009-10.171-1.978-3.639-6.53-4.988-10.171-3.009z" fill="#000000" data-original="#000000"></path>
          </g>
        </g>
      </g>
    </g>
  </symbol>
  <symbol xmlns="http://www.w3.org/2000/svg" version="1.1" xmlns:xlink="http://www.w3.org/1999/xlink" xmlnsSvgjs="http://svgjs.com/svgjs" x="0" y="0" xml:space="preserve" viewBox="0 0 512 512" id="flag">
    <g>
      <g xmlns="http://www.w3.org/2000/svg">
        <g>
          <path d="m452.707 27.324h-392.65v31.129h392.65c5.325 0 9.641-4.317 9.641-9.641v-11.846c.001-5.325-4.316-9.642-9.641-9.642z" fill="#865240" data-original="#865240"></path>
          <g>
            <path d="m424.926 106.04c-4.61 25.89-12.1 51.16-22.42 75.57-17.94 42.41-43.63 80.51-76.33 113.22-32.72 32.71-70.81 58.4-113.22 76.33-24.42 10.33-49.69 17.81-75.58 22.43v-287.55z" fill="#31a7fb" data-original="#31a7fb"></path>
            <g fill="#1c96f9">
              <path d="m424.93 106.04c-4.61 25.89-12.1 51.16-22.42 75.57-17.94 42.41-43.63 80.51-76.33 113.22-32.72 32.71-70.81 58.4-113.22 76.33-24.42 10.33-49.69 17.81-75.58 22.43v-12.6c8.79-2.92 17.48-6.2 26.07-9.83 42.41-17.93 80.5-43.62 113.22-76.33 32.7-32.71 58.39-70.81 76.33-113.22 10.32-24.41 17.81-49.68 22.42-75.57z" fill="#1c96f9" data-original="#1c96f9"></path>
              <path d="m210.866 106.04v43.5c0 2.76-2.24 5-5 5h-22.11c-2.76 0-5-2.24-5-5v-43.5z" fill="#1c96f9" data-original="#1c96f9"></path>
              <path d="m296.806 106.04v43.5c0 2.76-2.23 5-5 5h-22.1c-2.77 0-5-2.24-5-5v-43.5z" fill="#1c96f9" data-original="#1c96f9"></path>
              <path d="m382.756 106.04v43.5c0 2.76-2.24 5-5 5h-22.11c-2.76 0-5-2.24-5-5v-43.5z" fill="#1c96f9" data-original="#1c96f9"></path>
            </g>
            <path d="m464.936 90.58h-326.43c-9.16 0-16.58 7.43-16.58 16.59v326.43c0 5.32 4.31 9.64 9.64 9.64h13.88c5.33 0 9.64-4.32 9.64-9.64v-24.09c27.17-4.36 53.66-11.95 79.19-22.75.59-.25 1.18-.51 1.78-.77l12.05 29.1c2.04 4.92 7.68 7.26 12.6 5.22l12.82-5.31c4.92-2.04 7.25-7.68 5.22-12.6l-12.83-30.96c23.81-13.06 45.94-28.86 66.16-47.25l25.53 25.53c3.76 3.76 9.87 3.76 13.63 0l9.82-9.82c3.77-3.77 3.77-9.87 0-13.64l-25.53-25.53c18.4-20.21 34.2-42.35 47.25-66.15l30.97 12.82c4.92 2.04 10.56-.29 12.59-5.21l5.32-12.83c2.03-4.92-.3-10.56-5.22-12.6l-29.1-12.05c.25-.59.51-1.18.76-1.77 10.81-25.54 18.4-52.03 22.76-79.19h24.08c5.32 0 9.64-4.32 9.64-9.64v-13.89c0-5.32-4.32-9.64-9.64-9.64zm-77.38 99.43c-15.73 37.19-38.25 70.59-66.93 99.28-28.69 28.67-62.09 51.2-99.27 66.93-21.41 9.05-43.57 15.61-66.27 19.66v-252.13h252.13c-4.05 22.7-10.61 44.86-19.66 66.26z" fill="#fb6a3b" data-original="#fb6a3b"></path>
            <path d="m121.926 340.89h33.16v32.11h-33.16z" fill="#fb5532" data-original="#fb5532"></path>
            <path d="m121.926 254.95h33.16v32.11h-33.16z" fill="#fb5532" data-original="#fb5532"></path>
            <path d="m121.926 169h33.16v32.11h-33.16z" fill="#fb5532" data-original="#fb5532"></path>
            <path d="m308.474 242.555 1.805-11.979c.542-3.596-.829-7.21-3.626-9.534-10.76-8.939-38.58-31.327-58.374-40.817-7.232-3.473-27.399-8.193-38.661-10.675-3.7-.822-7.004 2.481-6.182 6.182 2.482 11.262 7.202 31.43 10.675 38.661 9.49 19.794 31.878 47.614 40.817 58.374 2.324 2.797 5.938 4.168 9.534 3.626l11.979-1.805c2.196-.331 4.229-1.357 5.799-2.927l23.307-23.307c1.57-1.57 2.596-3.602 2.927-5.799z" fill="#fff2e3" data-original="#fff2e3"></path>
          </g>
          <g>
            <path d="m87.866 17.14v487.36h-42.7v-487.36c0-5.32 4.31-9.64 9.64-9.64h23.42c5.32 0 9.64 4.32 9.64 9.64z" fill="#ba7c65" data-original="#ba7c65"></path>
            <g fill="#a96a53">
              <path d="m45.166 340.89h42.7v32.11h-42.7z" fill="#a96a53" data-original="#a96a53"></path>
              <path d="m45.166 254.95h42.7v32.11h-42.7z" fill="#a96a53" data-original="#a96a53"></path>
              <path d="m45.166 169h42.7v32.11h-42.7z" fill="#a96a53" data-original="#a96a53"></path>
            </g>
          </g>
        </g>
        <g fill="#fcac8d">
          <path d="m157.756 352.11h-115.333c-2.761 0-5-2.239-5-5v-22.11c0-2.761 2.239-5 5-5h115.333c2.761 0 5 2.239 5 5v22.11c0 2.761-2.239 5-5 5z" fill="#fcac8d" data-original="#fcac8d"></path>
          <path d="m157.756 266.167h-115.333c-2.761 0-5-2.239-5-5v-22.11c0-2.761 2.239-5 5-5h115.333c2.761 0 5 2.239 5 5v22.11c0 2.762-2.239 5-5 5z" fill="#fcac8d" data-original="#fcac8d"></path>
          <path d="m157.756 180.225h-115.333c-2.761 0-5-2.239-5-5v-22.11c0-2.761 2.239-5 5-5h115.333c2.761 0 5 2.239 5 5v22.11c0 2.761-2.239 5-5 5z" fill="#fcac8d" data-original="#fcac8d"></path>
        </g>
        <g>
          <path d="m178.759 128.749v-103.334c0-2.761 2.239-5 5-5h22.11c2.761 0 5 2.239 5 5v103.333c0 2.761-2.239 5-5 5h-22.11c-2.762.001-5-2.238-5-4.999z" fill="#fcac8d" data-original="#fcac8d"></path>
          <path d="m264.701 128.749v-103.334c0-2.761 2.239-5 5-5h22.11c2.761 0 5 2.239 5 5v103.333c0 2.761-2.239 5-5 5h-22.11c-2.761.001-5-2.238-5-4.999z" fill="#fcac8d" data-original="#fcac8d"></path>
          <g>
            <path d="m350.643 128.749v-103.334c0-2.761 2.239-5 5-5h22.11c2.761 0 5 2.239 5 5v103.333c0 2.761-2.239 5-5 5h-22.11c-2.761.001-5-2.238-5-4.999z" fill="#fcac8d" data-original="#fcac8d"></path>
            <g>
              <path d="m464.936 83.082h-25.273c-4.143 0-7.5 3.357-7.5 7.5s3.357 7.5 7.5 7.5h25.273c1.181 0 2.142.961 2.142 2.142v13.884c0 1.181-.961 2.142-2.142 2.142h-24.082c-3.684 0-6.821 2.675-7.405 6.312-4.266 26.575-11.754 52.634-22.258 77.455l-.75 1.744c-.789 1.843-.808 3.925-.052 5.782.756 1.856 2.225 3.333 4.076 4.101l29.099 12.051c.678.281 1.004.785 1.159 1.159.154.374.28.962 0 1.64l-5.312 12.823c-.281.678-.785 1.004-1.159 1.159-.375.155-.961.28-1.64 0l-30.964-12.826c-3.535-1.466-7.606-.033-9.446 3.322-12.743 23.237-28.295 45.012-46.223 64.718-2.694 2.962-2.587 7.519.244 10.351l25.529 25.528c.519.519.627 1.109.627 1.514s-.108.995-.628 1.514l-9.817 9.817c-.519.52-1.109.628-1.514.628s-.995-.108-1.515-.628l-25.529-25.528c-2.831-2.831-7.388-2.939-10.35-.244-19.701 17.925-41.476 33.477-64.717 46.224-3.355 1.841-4.787 5.911-3.322 9.446l12.825 30.962c.452 1.092-.067 2.348-1.158 2.8l-12.823 5.312c-.677.278-1.265.154-1.64 0-.374-.155-.878-.481-1.159-1.159l-12.053-29.099c-.768-1.854-2.247-3.323-4.107-4.079-1.861-.756-3.946-.732-5.788.061l-1.733.746c-24.819 10.502-50.878 17.99-77.451 22.256-3.637.584-6.312 3.722-6.312 7.405v24.083c0 1.181-.961 2.141-2.142 2.141h-13.884c-1.181 0-2.142-.96-2.142-2.141v-73.987h18.167v16.268c0 2.22.983 4.325 2.685 5.75 1.36 1.14 3.068 1.75 4.815 1.75.438 0 .878-.038 1.315-.116 23.206-4.136 46.021-10.902 67.811-20.111 3.815-1.612 5.601-6.013 3.988-9.828s-6.013-5.602-9.828-3.988c-17.995 7.605-36.721 13.461-55.786 17.452v-8.149c4.499-1.894 7.667-6.346 7.667-11.526v-22.115c0-5.18-3.168-9.633-7.667-11.526v-40.78c4.499-1.894 7.667-6.346 7.667-11.526v-22.109c0-5.18-3.168-9.633-7.667-11.526v-40.78c4.499-1.894 7.667-6.346 7.667-11.526v-22.109c0-5.18-3.168-9.633-7.667-11.526v-10.34h8.922c1.161 5.699 6.211 10 12.248 10h22.109c6.037 0 11.087-4.301 12.248-10h39.337c1.161 5.699 6.211 10 12.248 10h22.109c6.037 0 11.087-4.301 12.248-10h39.337c1.161 5.699 6.211 10 12.248 10h22.109c6.037 0 11.087-4.301 12.248-10h8.124c-3.996 19.088-9.86 37.834-17.477 55.844-15.348 36.284-37.326 68.883-65.325 96.89-20.22 20.215-43.061 37.438-67.886 51.19-3.624 2.007-4.934 6.571-2.927 10.194 1.369 2.473 3.929 3.868 6.567 3.867 1.229 0 2.477-.303 3.627-.94 26.051-14.43 50.014-32.499 71.225-53.705 29.373-29.381 52.431-63.581 68.533-101.653 9.223-21.806 15.997-44.641 20.138-67.87.39-2.186-.209-4.431-1.634-6.132s-3.53-2.685-5.75-2.685h-16.964v-18.17h16.085c4.143 0 7.5-3.357 7.5-7.5s-3.357-7.5-7.5-7.5h-16.085v-17.128h62.454c9.452 0 17.142-7.689 17.142-17.142v-11.846c0-9.452-7.689-17.142-17.142-17.142h-63.79c-2.057-4.09-6.282-6.909-11.164-6.909h-22.109c-4.882 0-9.107 2.819-11.164 6.909h-41.505c-2.057-4.09-6.282-6.909-11.164-6.909h-22.109c-4.882 0-9.107 2.819-11.164 6.909h-41.505c-2.057-4.09-6.282-6.909-11.164-6.909h-22.109c-4.882 0-9.107 2.819-11.164 6.909h-77.23v-2.683c0-9.452-7.689-17.141-17.141-17.141h-23.416c-9.452 0-17.142 7.689-17.142 17.142v44.53c0 4.143 3.357 7.5 7.5 7.5s7.5-3.357 7.5-7.5v-44.53c0-1.181.961-2.142 2.142-2.142h23.416c1.181 0 2.142.961 2.142 2.142v123.474h-27.7v-45.62c0-4.143-3.357-7.5-7.5-7.5s-7.5 3.357-7.5 7.5v46.567c-4.537 1.876-7.74 6.346-7.74 11.553v22.109c0 5.207 3.203 9.677 7.74 11.553v40.727c-4.537 1.876-7.74 6.346-7.74 11.553v22.109c0 5.207 3.203 9.677 7.74 11.553v40.727c-4.537 1.876-7.74 6.346-7.74 11.553v22.109c0 5.207 3.203 9.677 7.74 11.553v145.838c0 4.143 3.357 7.5 7.5 7.5h42.699c4.143 0 7.5-3.357 7.5-7.5v-144.891h19.06v73.987c0 9.451 7.689 17.141 17.142 17.141h13.884c9.452 0 17.142-7.689 17.142-17.141v-17.751c23.735-4.259 47.029-10.98 69.413-20.029l9.174 22.147c1.752 4.23 5.047 7.525 9.276 9.277 4.231 1.753 8.891 1.753 13.12-.001l12.824-5.312c8.73-3.617 12.892-13.664 9.275-22.396l-10.277-24.811c20.018-11.488 38.934-24.982 56.384-40.224l20.521 20.521c3.237 3.238 7.542 5.021 12.121 5.021 4.578 0 8.883-1.783 12.121-5.021l9.817-9.817c3.237-3.238 5.021-7.543 5.021-12.121 0-4.579-1.783-8.884-5.021-12.121l-20.521-20.521c15.243-17.453 28.737-36.37 40.223-56.385l24.812 10.277c4.229 1.754 8.89 1.753 13.119.001 4.23-1.752 7.525-5.047 9.277-9.277l5.312-12.823c1.753-4.23 1.753-8.89.001-13.12-1.752-4.229-5.047-7.524-9.277-9.276l-22.148-9.174c9.049-22.38 15.771-45.676 20.03-69.413h17.75c9.452 0 17.142-7.689 17.142-17.142v-13.884c-.002-9.45-7.691-17.139-17.143-17.139zm-10.087-46.116v11.847c0 1.181-.961 2.142-2.142 2.142h-62.454v-16.13h62.454c1.181-.001 2.142.96 2.142 2.141zm-96.705-9.051h17.109v98.334h-17.109zm-15 55.167h-38.833v-17.128h38.833zm-38.833 15h38.833v18.167h-38.833zm38.833-47.128h-38.833v-16.13h38.833zm-70.943-23.039h17.109v98.334h-17.109zm-15 55.167h-38.833v-17.128h38.833zm-38.833 15h38.833v18.167h-38.833zm38.833-47.128h-38.833v-16.13h38.833zm-70.942-23.039h17.109v98.334h-17.109zm-141.336 316.694v-17.109h110.333v17.109zm35.439 82.504h-27.699v-12.133h27.699zm74.894-271.498v17.109h-110.333v-17.109zm-25.834 156.885v-38.833h18.167v38.833zm-84.499-53.833v-17.109h110.333v17.109zm69.499-70.942v38.833h-19.06v-38.833zm0 85.942v38.833h-19.06v-38.833zm15-47.109v-38.833h18.167v38.833zm-49.06-38.833v38.833h-27.699v-38.833zm0 85.942v38.833h-27.699v-38.833zm74.727-157.418c-4.143 0-7.5 3.357-7.5 7.5v16.866h-18.167v-33.45c0-5.009 4.074-9.083 9.083-9.083h32.754v18.167zm16.17-81.425v16.13h-75.897v-16.13zm-75.897 31.13h75.896v17.128h-32.754c-13.279 0-24.083 10.804-24.083 24.083v33.45h-19.06v-74.661zm-42.699 431.046v-54.887h27.699v54.887zm27.699-97.02h-27.699v-40.371h27.699z" fill="#000000" data-original="#000000"></path>
              <path d="m262.951 284.007c.874 0 1.752-.064 2.627-.195l11.973-1.802c3.811-.574 7.265-2.316 9.988-5.04l23.315-23.315c2.724-2.724 4.466-6.178 5.04-9.988 0 0 0-.001.001-.002l1.801-11.97c.926-6.154-1.47-12.444-6.251-16.416-11.19-9.299-39.433-31.99-59.929-41.816-7.497-3.594-26.045-8.095-40.285-11.237-4.25-.936-8.628.341-11.704 3.418-3.078 3.077-4.355 7.453-3.418 11.705 3.143 14.239 7.644 32.787 11.237 40.285 9.829 20.498 32.518 48.738 41.815 59.927 3.408 4.101 8.521 6.446 13.79 6.446zm-51.401-106.342c16.699 3.772 29.087 7.215 33.482 9.322 18.984 9.103 46.065 30.885 56.828 39.829.779.647 1.154 1.637 1.002 2.646l-1.8 11.969c-.093.617-.375 1.176-.815 1.615l-6.354 6.354-39.228-39.228c-2.93-2.928-7.678-2.928-10.607 0-2.929 2.93-2.929 7.678 0 10.607l39.228 39.228-6.354 6.354c-.439.44-.998.723-1.613.814l-11.972 1.801c-1.006.151-1.997-.223-2.646-1.003-8.942-10.762-30.724-37.84-39.828-56.827-2.108-4.394-5.55-16.781-9.323-33.481z" fill="#000000" data-original="#000000"></path>
            </g>
          </g>
        </g>
      </g>
    </g>
  </symbol>
  <symbol xmlns="http://www.w3.org/2000/svg" version="1.1" xmlns:xlink="http://www.w3.org/1999/xlink" xmlnsSvgjs="http://svgjs.com/svgjs" x="0" y="0" xml:space="preserve" viewBox="0 0 512 512" id="drakkar">
    <g>
      <g xmlns="http://www.w3.org/2000/svg">
        <path d="m262.73 359.203h-26.035v-302.15c0-5.523 4.477-10 10-10h6.035c5.523 0 10 4.477 10 10z" fill="#9e9797" data-original="#9e9797"></path>
        <path d="m236.694 257.72h26.035v35.667h-26.035z" fill="#756f6f" data-original="#756f6f"></path>
        <path d="m504.5 348.786v.826c0 63.698-51.637 115.335-115.335 115.335h-231.17c-63.698 0-115.335-51.637-115.335-115.335v-102.475h-10.84c-6.72 0-12.8-2.72-17.2-7.12-4.503-4.503-7.247-10.767-7.115-17.664.254-13.337 11.527-23.846 24.866-23.846h13.921c3.129 0 6.079 1.465 7.969 3.959l23.317 30.759c1.225 1.616 1.93 3.567 2.021 5.593l1.99 44.391c2.231 49.774 42.29 90.089 92.1 91.279.788.019 188.411.028 188.411.028 3.36 0 6.96-.45 10.69-1.25 34.46-7.32 56.97-40.64 51.94-75.5l-18.73-129.649c-1.41-9.69-6.82-18.49-15.17-23.62-5.21-3.21-9.03-8.6-10.02-15.12-1.14-7.46 1.67-14.6 6.88-19.3 2.97-2.69 5.28-5.96 6.84-9.57 1.55-3.6 2.37-7.54 2.37-11.54 0-3.54 4.15-5.44 6.83-3.13l22.99 19.86h12.57c2.56 0 4.96 1.3 6.35 3.46l6.03 9.34h27.17c12.29 0 22.25 9.96 22.25 22.24v7.24c0 4.175-3.385 7.56-7.56 7.56h-23.327c-9.038 0-15.354 8.947-12.328 17.463l31.698 89.201c9.879 27.799 14.927 57.083 14.927 86.585z" fill="#ba7c65" data-original="#ba7c65"></path>
        <g fill="#a96a53">
          <path d="m390.83 144.497c8.35 5.13 13.76 13.93 15.17 23.62l16.412 113.602h73.219c-1.763-6.574-3.772-13.088-6.057-19.518l-31.698-89.201c-3.026-8.517 3.289-17.464 12.328-17.464h23.327c4.175 0 7.56-3.385 7.56-7.56v-7.24c0-12.28-9.96-22.24-22.25-22.24h-27.17l-6.03-9.34c-1.39-2.16-3.79-3.46-6.35-3.46h-12.57l-22.99-19.86c-2.68-2.31-6.83-.41-6.83 3.13 0 4-.82 7.94-2.37 11.54-1.56 3.61-3.87 6.88-6.84 9.57-5.21 4.7-8.02 11.84-6.88 19.3.989 6.521 4.809 11.911 10.019 15.121z" fill="#a96a53" data-original="#a96a53"></path>
          <path d="m414.83 374.216c0 33.61-27.35 60.96-60.96 60.96-15.75 0-30.13-6.01-40.95-15.85-10.83 9.84-25.21 15.85-40.96 15.85s-30.13-6.01-40.96-15.85c-10.83 9.84-25.21 15.85-40.96 15.85-33.61 0-60.96-27.35-60.96-60.96 0-4 .39-7.91 1.13-11.69 12.92 7.28 27.71 11.58 43.48 11.96.79.02 188.41.03 188.41.03 3.36 0 6.96-.45 10.69-1.25 15.18-3.22 28.04-11.49 37.25-22.72 3.08 7.28 4.79 15.28 4.79 23.67z" fill="#a96a53" data-original="#a96a53"></path>
          <path d="m504.5 348.786v.83c0 63.69-51.64 115.33-115.34 115.33h-32.47c63.7 0 115.33-51.64 115.33-115.33v-.83c0-29.5-5.05-58.79-14.92-86.58l-31.7-89.21c-3.03-8.51 3.29-17.46 12.33-17.46h23.32c4.18 0 7.56-3.38 7.56-7.56v-7.24c0-12.28-9.96-22.24-22.25-22.24h-27.17l-6.03-9.34c-1.39-2.16-3.79-3.46-6.35-3.46h-12.57l-1.68-1.45c.76-1.2 1.41-2.45 1.97-3.74 1.55-3.6 2.37-7.54 2.37-11.54 0-3.54 4.15-5.44 6.83-3.13l22.99 19.86h12.57c2.56 0 4.96 1.3 6.35 3.46l6.03 9.34h27.17c12.29 0 22.25 9.96 22.25 22.24v7.24c0 4.18-3.38 7.56-7.56 7.56h-23.33c-9.04 0-15.35 8.95-12.32 17.46l31.69 89.21c9.88 27.79 14.93 57.08 14.93 86.58z" fill="#a96a53" data-original="#a96a53"></path>
        </g>
        <path d="m501.09 140.736v7.24c0 4.18-3.38 7.56-7.56 7.56h-23.33c-9.04 0-15.35 8.95-12.32 17.46l27.14 76.39h-67.28l-11.74-81.27c-1.41-9.69-6.82-18.49-15.17-23.62-5.21-3.21-9.03-8.6-10.02-15.12-1.14-7.46 1.67-14.6 6.88-19.3 1.91-1.73 3.54-3.69 4.87-5.83.43-.67.82-1.36 1.18-2.07.1-.2.2-.4.29-.6.18-.35.34-.71.5-1.07 1.55-3.6 2.37-7.54 2.37-11.54 0-3.54 4.15-5.44 6.83-3.13l22.99 19.86h12.57c2.56 0 4.96 1.3 6.35 3.46l6.03 9.34h27.17c12.29 0 22.25 9.96 22.25 22.24z" fill="#fcc16d" data-original="#fcc16d"></path>
        <path d="m501.09 140.736v7.24c0 4.18-3.38 7.56-7.56 7.56h-23.33c-9.04 0-15.35 8.95-12.32 17.46l27.14 76.39h-32.48l-27.14-76.39c-3.03-8.51 3.29-17.46 12.33-17.46h23.32c4.18 0 7.56-3.38 7.56-7.56v-7.24c0-12.28-9.96-22.24-22.25-22.24h-27.17l-6.03-9.34c-1.39-2.16-3.79-3.46-6.35-3.46h-12.57l-1.68-1.45c.43-.67.82-1.36 1.18-2.07.1-.2.2-.4.29-.6.18-.35.34-.71.5-1.07 1.55-3.6 2.37-7.54 2.37-11.54 0-3.54 4.15-5.44 6.83-3.13l22.99 19.86h12.57c2.56 0 4.96 1.3 6.35 3.46l6.03 9.34h27.17c12.29 0 22.25 9.96 22.25 22.24z" fill="#fcb44d" data-original="#fcb44d"></path>
        <path d="m488.45 259.056h-69.31l-7.13-49.34h58.91z" fill="#cdbfbb" data-original="#cdbfbb"></path>
        <path d="m488.45 259.056h-32.47l-17.53-49.34h32.47z" fill="#9e9797" data-original="#9e9797"></path>
        <g>
          <g>
            <circle cx="190.043" cy="374.218" fill="#faf7f7" r="40.957" data-original="#faf7f7"></circle>
            <circle cx="190.043" cy="374.218" fill="#64b9fc" r="17.624" data-original="#64b9fc"></circle>
          </g>
          <g>
            <circle cx="271.957" cy="374.218" fill="#faf7f7" r="40.957" data-original="#faf7f7"></circle>
            <circle cx="271.957" cy="374.218" fill="#64b9fc" r="17.624" data-original="#64b9fc"></circle>
          </g>
          <g>
            <circle cx="353.872" cy="374.218" fill="#faf7f7" r="40.957" data-original="#faf7f7"></circle>
            <circle cx="353.872" cy="374.218" fill="#64b9fc" r="17.624" data-original="#64b9fc"></circle>
          </g>
        </g>
        <g>
          <path d="m333.342 81.18c4.318 0 8.146 2.766 9.502 6.866 8.222 24.865 13.134 56.298 13.134 90.482 0 32.903-4.551 63.256-12.224 87.659-1.31 4.166-5.176 6.994-9.543 6.994h-179.278c-6.635 0-11.43-6.338-9.617-12.72 6.633-23.354 10.512-51.557 10.512-81.933 0-31.504-4.172-60.671-11.262-84.515-1.905-6.406 2.901-12.832 9.585-12.832h179.191z" fill="#64b9fc" data-original="#64b9fc"></path>
          <path d="m355.98 178.526c0 32.9-4.55 63.26-12.23 87.66-1.31 4.17-5.17 6.99-9.54 6.99h-28.78c4.36 0 8.23-2.82 9.54-6.99 7.67-24.4 12.22-54.76 12.22-87.66 0-34.18-4.91-65.62-13.13-90.48-1.36-4.1-5.19-6.87-9.5-6.87h28.78c4.32 0 8.15 2.77 9.5 6.87 8.23 24.86 13.14 56.3 13.14 90.48z" fill="#31a7fb" data-original="#31a7fb"></path>
          <path d="m298.427 81.18c9.668 25.819 15.551 59.935 15.551 97.347 0 36.125-5.485 69.176-14.566 94.653h-116.15c9.081-25.477 14.566-58.528 14.566-94.653 0-37.412-5.883-71.528-15.551-97.347z" fill="#fb6a3b" data-original="#fb6a3b"></path>
          <path d="m259.427 81.18c9.668 25.819 15.551 59.935 15.551 97.347 0 36.125-5.485 69.176-14.566 94.653h-38.151c9.081-25.477 14.566-58.528 14.566-94.653 0-37.412-5.883-71.528-15.551-97.347z" fill="#faf7f7" data-original="#faf7f7"></path>
        </g>
        <path d="m493.5 279.484h-8.711c-4.098 0-7.782-2.501-9.294-6.31l-28.059-70.67c-2.607-6.565 2.23-13.69 9.294-13.69h8.711c4.098 0 7.782 2.501 9.294 6.31l28.059 70.67c2.607 6.565-2.23 13.69-9.294 13.69z" fill="#fddaa9" data-original="#fddaa9"></path>
        <g>
          <path d="m461.028 430.003c-19.784 17.698-45.305 27.444-71.863 27.444h-231.17c-59.46 0-107.835-48.375-107.835-107.836v-3.725h8.84c4.142 0 7.5-3.357 7.5-7.5s-3.358-7.5-7.5-7.5h-8.84v-21.725c0-4.143-3.358-7.5-7.5-7.5s-7.5 3.357-7.5 7.5v40.449c0 67.731 55.104 122.836 122.835 122.836h231.17c30.253 0 59.326-11.104 81.864-31.265 3.087-2.762 3.351-7.503.589-10.59-2.761-3.086-7.503-3.35-10.59-.588z" fill="#000000" data-original="#000000"></path>
          <path d="m503.88 283.566c1.574-1.161 2.968-2.587 4.098-4.252 3.261-4.804 3.929-10.893 1.787-16.288l-28.059-70.67c-2.226-5.605-7.053-9.542-12.79-10.688l-3.973-11.18c-.615-1.731-.36-3.586.7-5.088 1.061-1.502 2.723-2.363 4.561-2.363h23.327c8.304 0 15.06-6.756 15.06-15.061v-7.239c0-16.398-13.346-29.74-29.75-29.74h-23.084l-3.808-5.898c-2.781-4.321-7.513-6.901-12.657-6.901h-9.779l-20.885-18.042c-3.489-3.006-8.257-3.682-12.442-1.765-4.186 1.918-6.786 5.97-6.786 10.576 0 2.938-.608 5.902-1.754 8.564-1.163 2.689-2.842 5.041-4.98 6.978-7.288 6.574-10.753 16.295-9.271 25.994 1.284 8.456 6.205 15.884 13.509 20.385 6.288 3.862 10.543 10.536 11.673 18.302l7.06 48.87-43.897-74.674c-2.094-20.849-6.057-40.4-11.776-57.696-2.376-7.184-9.057-12.011-16.623-12.011h-63.111v-16.626c0-9.649-7.851-17.5-17.5-17.5h-6.035c-9.649 0-17.5 7.851-17.5 17.5v16.627h-75.045c-5.581 0-10.694 2.564-14.03 7.036-3.332 4.467-4.332 10.093-2.744 15.435 4.618 15.529 7.823 32.89 9.525 51.246-.099.144-.2.286-.29.438l-59.106 99.865-.413-9.216c-.16-3.562-1.383-6.945-3.537-9.787l-23.318-30.762c-3.29-4.337-8.502-6.927-13.945-6.927h-13.921c-17.518 0-32.037 13.997-32.365 31.203-.167 8.731 3.14 16.939 9.311 23.111 6.008 6.007 14 9.315 22.503 9.315h3.34v21.201c0 4.143 3.358 7.5 7.5 7.5s7.5-3.357 7.5-7.5v-28.701c0-4.143-3.358-7.5-7.5-7.5h-10.84c-4.497 0-8.722-1.748-11.896-4.922-3.261-3.262-5.009-7.602-4.921-12.22.173-9.092 7.965-16.488 17.368-16.488h13.921c.778 0 1.523.37 1.992.989l23.317 30.76c.308.406.483.89.505 1.398l1.989 44.392c1.867 41.667 28.866 78.424 67.534 92.448.117 3.236.554 6.389 1.278 9.434h-49.24c-4.142 0-7.5 3.357-7.5 7.5s3.358 7.5 7.5 7.5h55.65c8.635 13.371 23.658 22.248 40.726 22.248 17.221 0 32.361-9.037 40.958-22.609 8.596 13.573 23.737 22.609 40.958 22.609s32.361-9.037 40.958-22.609c8.596 13.573 23.737 22.609 40.957 22.609 26.72 0 48.458-21.737 48.458-48.457 0-1.986-.134-3.94-.367-5.864 22.351-16.159 34.173-44.06 30.191-71.66l-4.354-30.143h35.698c.427 0 .843-.044 1.251-.113l3.773 9.502c2.664 6.708 9.047 11.042 16.265 11.042h4.482c2.947 11.604 5.054 23.4 6.317 35.29h-35.921c-4.142 0-7.5 3.357-7.5 7.5s3.358 7.5 7.5 7.5h37.064c.176 3.833.27 7.671.27 11.512v.825c0 19.963-5.499 39.461-15.902 56.385-2.169 3.529-1.067 8.147 2.461 10.317 1.225.753 2.581 1.111 3.92 1.111 2.52 0 4.98-1.27 6.396-3.573 11.857-19.286 18.124-41.5 18.124-64.239v-.825c0-21.989-2.732-43.908-8.12-65.22zm-109.116-145.455c-3.535-2.178-5.918-5.771-6.54-9.867-.719-4.704.959-9.413 4.501-12.608 3.748-3.395 6.671-7.483 8.694-12.163 1.056-2.452 1.842-5.047 2.341-7.698l18.057 15.599c1.362 1.177 3.103 1.824 4.903 1.824l12.62.028 6.03 9.34c1.381 2.14 3.754 3.432 6.301 3.432h27.17c8.133 0 14.75 6.612 14.75 14.74l-.06 7.3h-23.327c-6.678 0-12.964 3.257-16.815 8.713s-4.815 12.47-2.579 18.762l2.206 6.208c-4.342.942-8.212 3.507-10.763 7.264-2.658 3.915-3.592 8.684-2.687 13.235h-21.06l-5.083-35.183c-1.774-12.187-8.578-22.732-18.659-28.926zm-59.041-47.711c8.225 24.874 12.754 56.171 12.754 88.127 0 31.161-4.107 60.695-11.879 85.409-.328 1.043-1.288 1.743-2.388 1.743h-24.477c7.591-25.361 11.744-55.934 11.744-87.152 0-32.372-4.446-63.963-12.565-89.848h24.428c1.085.001 2.043.692 2.383 1.721zm-91.529 244.138v-53.858h11.035v48.059c-3.946 1.456-7.645 3.421-11.035 5.799zm-28.215-245.858c8.607 25.204 13.348 57.028 13.348 89.848 0 31.618-4.418 62.404-12.453 87.152h-23.291c7.591-25.36 11.744-55.933 11.744-87.152 0-32.372-4.446-63.963-12.565-89.848zm55.329 140.429c-4.077-.735-7.978 1.968-8.716 6.043-1.979 10.929-4.521 21.176-7.557 30.527h-22.451c7.591-25.36 11.744-55.933 11.744-87.152 0-32.372-4.446-63.963-12.565-89.848h22.367c8.607 25.205 13.349 57.028 13.349 89.848 0 8.143-.299 16.399-.889 24.541-.299 4.132 2.808 7.724 6.938 8.022.185.014.368.02.55.02 3.896 0 7.187-3.012 7.473-6.958.616-8.501.928-17.122.928-25.625 0-32.372-4.446-63.963-12.565-89.848h23.217c8.607 25.205 13.348 57.029 13.348 89.848 0 31.617-4.418 62.402-12.452 87.152h-23.277c2.608-8.702 4.824-18.033 6.602-27.854.737-4.075-1.969-7.977-6.044-8.716zm-27.114-172.056c0-1.379 1.122-2.5 2.5-2.5h6.035c1.378 0 2.5 1.121 2.5 2.5v16.627h-11.035zm-92.05 32.632c.28-.375.913-1.005 2.006-1.005h22.829c8.607 25.204 13.348 57.028 13.348 89.848 0 31.618-4.418 62.403-12.453 87.152h-22.942c-1.084 0-1.716-.621-1.996-.992-.278-.368-.702-1.142-.407-2.179 7.063-24.868 10.797-53.908 10.797-83.981 0-31.229-4.002-61.193-11.573-86.652-.307-1.039.113-1.819.391-2.191zm-63.062 193.189-.35-7.82c.032-.051.07-.095.101-.147l59.463-100.467c.016 1.361.032 2.721.032 4.087 0 28.707-3.536 56.33-10.227 79.884-1.512 5.322-.466 10.905 2.868 15.319 3.337 4.416 8.427 6.949 13.964 6.949h74.261v65.033c-8.821-12.082-23.081-19.952-39.152-19.952-22.012 0-40.63 14.758-46.512 34.896-31.286-12.796-52.904-43.319-54.448-77.782zm100.961 124.802c-18.449 0-33.458-15.009-33.458-33.457 0-18.449 15.009-33.458 33.458-33.458s33.457 15.009 33.457 33.458c0 18.448-15.009 33.457-33.457 33.457zm81.915 0c-18.449 0-33.458-15.009-33.458-33.457 0-18.449 15.009-33.458 33.458-33.458s33.458 15.009 33.458 33.458c-.001 18.448-15.01 33.457-33.458 33.457zm81.914 0c-18.448 0-33.457-15.009-33.457-33.457 0-18.449 15.009-33.458 33.457-33.458 18.449 0 33.458 15.009 33.458 33.458 0 18.448-15.009 33.457-33.458 33.457zm43.489-54.804c-7.907-16.043-24.427-27.111-43.489-27.111-17.22 0-32.361 9.037-40.957 22.61-8.596-13.573-23.737-22.61-40.958-22.61-.58 0-1.153.024-1.728.044v-45.125h63.981c7.685 0 14.395-4.92 16.698-12.243 8.223-26.151 12.569-57.242 12.569-89.909 0-.693-.014-1.379-.018-2.071l47.43 80.138c.121.205.261.391.397.579l6.019 41.665c2.933 20.313-4.807 40.817-19.944 54.033zm28.27-101.319-4.96-34.333h24.537l13.632 34.333zm56.834 18.854-28.059-70.67c-.425-1.071-.022-1.918.255-2.327s.916-1.096 2.068-1.096h8.71c1.031 0 1.943.619 2.324 1.577l28.059 70.67c.425 1.071.022 1.918-.255 2.327s-.916 1.096-2.068 1.096h-8.711c-1.03 0-1.942-.619-2.323-1.577z" fill="#000000" data-original="#000000"></path>
          <path d="m190.043 349.095c-13.854 0-25.124 11.271-25.124 25.124s11.271 25.124 25.124 25.124 25.124-11.271 25.124-25.124-11.271-25.124-25.124-25.124zm0 35.248c-5.583 0-10.124-4.542-10.124-10.124s4.542-10.124 10.124-10.124 10.124 4.542 10.124 10.124-4.542 10.124-10.124 10.124z" fill="#000000" data-original="#000000"></path>
          <path d="m271.958 349.095c-13.854 0-25.124 11.271-25.124 25.124s11.271 25.124 25.124 25.124 25.124-11.271 25.124-25.124-11.271-25.124-25.124-25.124zm0 35.248c-5.583 0-10.125-4.542-10.125-10.124s4.542-10.124 10.125-10.124 10.124 4.542 10.124 10.124-4.542 10.124-10.124 10.124z" fill="#000000" data-original="#000000"></path>
          <path d="m353.872 349.095c-13.854 0-25.124 11.271-25.124 25.124s11.271 25.124 25.124 25.124 25.125-11.271 25.125-25.124-11.271-25.124-25.125-25.124zm0 35.248c-5.583 0-10.124-4.542-10.124-10.124s4.542-10.124 10.124-10.124 10.125 4.542 10.125 10.124-4.542 10.124-10.125 10.124z" fill="#000000" data-original="#000000"></path>
          <path d="m57.86 362.387c0 4.143 3.358 7.5 7.5 7.5h21.64c4.142 0 7.5-3.357 7.5-7.5s-3.358-7.5-7.5-7.5h-21.64c-4.142 0-7.5 3.357-7.5 7.5z" fill="#000000" data-original="#000000"></path>
          <path d="m412.402 442.792c4.142 0 7.5-3.357 7.5-7.5s-3.358-7.5-7.5-7.5h-127.346c-4.142 0-7.5 3.357-7.5 7.5s3.358 7.5 7.5 7.5z" fill="#000000" data-original="#000000"></path>
          <path d="m463.667 385.22c4.142 0 7.5-3.357 7.5-7.5s-3.358-7.5-7.5-7.5h-26.597c-4.142 0-7.5 3.357-7.5 7.5s3.358 7.5 7.5 7.5z" fill="#000000" data-original="#000000"></path>
          <path d="m418.038 138.261 6.972-.647c4.125-.383 7.158-4.037 6.774-8.161-.383-4.124-4.038-7.151-8.161-6.774l-6.972.647c-4.125.383-7.158 4.037-6.774 8.161.361 3.889 3.629 6.808 7.459 6.808.232-.001.466-.013.702-.034z" fill="#000000" data-original="#000000"></path>
        </g>
      </g>
    </g>
  </symbol>
  <symbol xmlns="http://www.w3.org/2000/svg" version="1.1" xmlns:xlink="http://www.w3.org/1999/xlink" xmlnsSvgjs="http://svgjs.com/svgjs" x="0" y="0" xml:space="preserve" viewBox="0 0 511.963 511.963" id="horn">
    <g>
      <g xmlns="http://www.w3.org/2000/svg">
        <g>
          <path d="m312.754 206.416c-29.343 31.034-53.762 60.566-91.475 82.461-58.326 33.862-120.505 35.981-185.774 24.396-19.569-3.473-36.031 17.49-23.888 34.976 6.29 9.059 19.861 16.345 28.89 22.072 104.934 66.563 239.155 63.99 351.03 16.552 26.193-11.106 55.901-23.594 72.712-47.703z" fill="#c58d7c" data-original="#c58d7c"></path>
          <path d="m464.253 339.17c-16.819 24.105-46.523 36.596-72.722 47.705-111.869 47.435-246.09 50.009-351.027-16.556-9.027-5.728-22.6-13.018-28.888-22.076-4.592-6.605-5.092-13.706-2.879-19.795 5.71 4.085 11.98 7.668 16.911 10.794 104.928 66.562 239.149 63.989 351.027 16.556 22.121-9.389 46.764-19.753 64.011-37.279z" fill="#ba7c65" data-original="#ba7c65"></path>
          <path d="m433.328 366.749-18.114-15.876c-10.138 2.729-21.399.506-29.852-6.919-8.439-7.413-12.1-18.261-10.724-28.64l-24.538-21.493c-10.103 2.676-21.314.436-29.733-6.959-8.405-7.383-12.069-18.173-10.742-28.51l-24.987-21.901c9.277-9.696 18.431-19.788 28.115-30.03l151.492 132.75c-7.981 11.446-18.873 20.277-30.917 27.578z" fill="#ba7c65" data-original="#ba7c65"></path>
          <path d="m455.404 362.008-162.08-142.031c-3.763-3.297-4.14-9.02-.843-12.783l34.03-38.833c3.297-3.763 9.02-4.14 12.783-.843l162.08 142.031c3.763 3.297 4.14 9.02.843 12.783l-34.03 38.833c-3.297 3.763-9.02 4.14-12.783.843z" fill="#fcc16d" data-original="#fcc16d"></path>
          <g fill="#fcb44d">
            <path d="m502.214 322.334-34.03 38.83c-3.29 3.76-9.02 4.14-12.78.84l-16.74-14.67c3.18.66 6.62-.37 8.91-2.99l35.13-40.09c2.39-2.72 2.91-6.45 1.66-9.61l17.01 14.91c3.76 3.29 4.14 9.02.84 12.78z" fill="#fcb44d" data-original="#fcb44d"></path>
            <path d="m379.673 202.904c-11.822 13.211-32.185 14.458-45.531 2.735-10.406-9.141-13.551-23.527-8.94-35.79l1.309-1.49c3.3-3.757 9.02-4.133 12.783-.84z" fill="#fcb44d" data-original="#fcb44d"></path>
            <path d="m444.739 259.915c-11.804 13.287-32.229 14.564-45.603 2.817-13.359-11.735-14.742-32.109-3.146-45.53z" fill="#fcb44d" data-original="#fcb44d"></path>
            <path d="m502.221 322.334-1.584 1.804c-11.546 6.075-26.142 4.792-36.507-4.313-13.387-11.759-14.747-32.186-3.074-45.612l40.318 35.332c3.764 3.306 4.14 9.026.847 12.789z" fill="#fcb44d" data-original="#fcb44d"></path>
          </g>
          <g fill="#fc7d4b">
            <circle cx="355.527" cy="181.292" r="14.29" fill="#fc7d4b" data-original="#fc7d4b"></circle>
            <circle cx="420.521" cy="238.385" r="14.29" fill="#fc7d4b" data-original="#fc7d4b"></circle>
            <circle cx="485.515" cy="295.477" r="14.29" fill="#fc7d4b" data-original="#fc7d4b"></circle>
          </g>
          <g fill="#fc7d4b">
            <circle cx="341.751" cy="262.516" r="14.29" fill="#fc7d4b" data-original="#fc7d4b"></circle>
            <circle cx="406.745" cy="319.609" r="14.29" fill="#fc7d4b" data-original="#fc7d4b"></circle>
          </g>
        </g>
        <path d="m120.543 415.5-30.42-10.5c-4.66-1.608-7.37-6.459-6.296-11.271l17.309-77.54c.904-4.051 4.288-7.076 8.415-7.523l33.575-3.632c6.598-.714 11.945 5.267 10.499 11.745l-20.464 91.673c-1.259 5.644-7.151 8.935-12.618 7.048z" fill="#fc7d4b" data-original="#fc7d4b"></path>
        <path d="m100.681 354.762h24.846v51.364h-24.846z" fill="#fb6a3b" transform="matrix(.218 -.976 .976 .218 -282.839 407.997)" data-original="#fb6a3b"></path>
        <path d="m143.533 379.472-58.095-12.969c-2.612-.583-4.256-3.173-3.673-5.784l3.519-15.762c.583-2.612 3.173-4.256 5.784-3.673l58.095 12.969c2.612.583 4.256 3.173 3.673 5.784l-3.519 15.762c-.583 2.611-3.173 4.256-5.784 3.673z" fill="#fcc16d" data-original="#fcc16d"></path>
        <circle cx="169.069" cy="111.197" fill="#e0d3ce" r="20.673" data-original="#e0d3ce"></circle>
        <path d="m511.927 315.273c-.291-4.414-2.283-8.449-5.609-11.364l-.542-.475c3.25-8.302 1.196-18.112-5.879-24.327-7.087-6.226-17.106-6.988-24.926-2.668l-34.228-29.995c3.307-8.323 1.265-18.189-5.84-24.43-7.116-6.252-17.189-6.996-25.023-2.615l-5.795-5.078c-3.117-2.731-7.855-2.418-10.584.698-2.73 3.115-2.418 7.854.697 10.583l5.925 5.192c-.769 2.074-1.214 4.231-1.33 6.404l-39.672 12.154c-.878-1.153-1.874-2.228-2.987-3.206s-2.308-1.828-3.564-2.549l6.937-40.896c2.125-.392 4.198-1.098 6.144-2.116l3.612 3.166c1.424 1.248 3.186 1.86 4.94 1.86 2.085 0 4.161-.865 5.644-2.557 2.729-3.115 2.418-7.854-.697-10.583l-3.44-3.015c3.365-8.345 1.335-18.267-5.798-24.533-4.373-3.841-9.973-5.755-15.788-5.374-3.344.216-6.511 1.197-9.34 2.805l-.541-.475c-3.326-2.916-7.595-4.357-12.003-4.069-4.414.291-8.45 2.283-11.364 5.61l-12.095 13.802-112.217-59.859c.002-.009.004-.017.006-.026 3.384-15.161-6.197-30.25-21.359-33.634-7.344-1.64-14.888-.321-21.24 3.713-6.353 4.034-10.754 10.301-12.394 17.645-1.64 7.345-.321 14.888 3.713 21.241 2.656 4.182 6.284 7.512 10.546 9.772l-36.611 164.003-10.48 1.133c-6.426.701-11.833 4.925-14.146 10.815-17.991-.433-36.916-2.432-57.778-6.135-12.654-2.244-25.287 3.261-32.186 14.03-6.458 10.08-6.141 22.575.826 32.608 3.191 4.596 7.893 8.984 14.795 13.81 1.308.915 2.807 1.354 4.291 1.354 2.366 0 4.694-1.117 6.153-3.203 2.374-3.395 1.546-8.07-1.849-10.444-5.33-3.727-8.95-7.021-11.069-10.072-5.042-7.262-2.041-13.581-.516-15.96 3.62-5.65 10.269-8.537 16.934-7.353 20.398 3.621 39.06 5.673 56.859 6.273l-1.507 6.755c-2.163.078-4.276.715-6.152 1.906-2.784 1.768-4.712 4.513-5.431 7.731l-3.519 15.763c-1.245 5.582 1.529 11.128 6.385 13.642l-2.215 9.92c-7.496-3.52-14.873-7.334-21.993-11.403-3.597-2.055-8.178-.805-10.233 2.791-2.055 3.597-.806 8.178 2.791 10.233 8.732 4.99 17.831 9.611 27.067 13.797.824 6.302 5.107 11.843 11.431 14.028l30.43 10.503c1.816.625 3.705.933 5.589.933 2.912 0 5.812-.738 8.403-2.188 1.364-.763 2.588-1.718 3.68-2.798 28.43 6.923 58.438 10.406 89.067 10.406 25.081 0 50.578-2.33 75.942-7.003 4.073-.75 6.767-4.661 6.017-8.735-.751-4.074-4.661-6.768-8.735-6.017-53.405 9.839-107.315 8.908-156.347-2.647l3.909-17.503c5.229-.446 9.803-4.225 11.006-9.612l3.519-15.762c.718-3.218.141-6.523-1.627-9.307-1.087-1.711-2.545-3.096-4.254-4.078l6.133-27.464c22.702-5.178 44.435-13.73 64.638-25.459 28.996-16.834 50.259-37.907 72.529-61.69l23.897 20.941c-3.219 8.289-1.16 18.071 5.899 24.273 4.011 3.523 9.06 5.42 14.35 5.42.478 0 .957-.015 1.438-.046 3.248-.21 6.329-1.144 9.096-2.67l34.25 30.013c-3.277 8.311-1.23 18.148 5.859 24.376 4.012 3.523 9.06 5.42 14.351 5.42.478 0 .957-.015 1.438-.046 3.286-.213 6.401-1.165 9.193-2.724l19.363 16.968c-14.311 10.03-31.205 17.207-47.602 24.159l-.498.211c-18.965 8.042-38.657 14.787-58.529 20.05-4.004 1.061-6.391 5.166-5.33 9.17.89 3.361 3.925 5.582 7.245 5.582.636 0 1.281-.082 1.925-.252 20.558-5.444 40.928-12.422 60.545-20.74l.498-.211c17.386-7.372 36.992-15.701 53.319-27.828l2.181 1.911c3.137 2.748 7.026 4.097 10.902 4.097 4.608 0 9.195-1.908 12.464-5.638l34.029-38.833c2.907-3.329 4.353-7.592 4.062-12.005zm-26.407-26.583c1.592 0 3.19.555 4.478 1.686 2.813 2.471 3.091 6.77.62 9.583-2.472 2.813-6.77 3.092-9.583.621s-3.091-6.77-.62-9.583c1.339-1.527 3.218-2.307 5.105-2.307zm-61.408 17.754c-.878-1.153-1.874-2.228-2.987-3.206s-2.308-1.828-3.564-2.549l6.937-40.896c2.161-.399 4.267-1.123 6.241-2.169l34.416 30.159c-.793 2.105-1.252 4.298-1.37 6.508zm-27.631-6.043-34.381-30.129c.8-2.094 1.276-4.303 1.395-6.574l39.661-12.15c.869 1.146 1.864 2.222 2.985 3.207s2.32 1.821 3.567 2.535l-6.938 40.908c-2.218.407-4.33 1.155-6.289 2.203zm24.044-68.804c1.592 0 3.19.555 4.478 1.686 2.813 2.471 3.091 6.77.62 9.583-2.472 2.813-6.77 3.092-9.583.621-2.813-2.472-3.091-6.771-.62-9.583 1.34-1.526 3.219-2.307 5.105-2.307zm-65.436-57.081c.149-.01.299-.015.448-.015 1.647 0 3.222.591 4.472 1.689 2.813 2.471 3.091 6.77.62 9.583s-6.77 3.092-9.583.621c-1.362-1.197-2.178-2.854-2.295-4.664s.478-3.557 1.675-4.919 2.853-2.178 4.663-2.295zm-22.937-1.212c.352-.401.775-.508 1.069-.527.289-.022.729.03 1.13.382l.724.635c-1.032 2.812-1.493 5.827-1.293 8.906.376 5.808 2.991 11.122 7.364 14.963 1.121.985 2.319 1.821 3.567 2.535l-6.939 40.908c-2.254.414-4.398 1.18-6.384 2.256l-33.121-29.025c-.402-.352-.51-.776-.528-1.07-.02-.293.031-.728.383-1.129zm-175.94-64.977c.767-3.434 2.825-6.364 5.795-8.25 2.138-1.357 4.564-2.057 7.036-2.057.963 0 1.933.106 2.895.321 7.089 1.583 11.57 8.638 9.987 15.727-.767 3.434-2.825 6.364-5.795 8.25-2.971 1.887-6.499 2.503-9.932 1.736-3.434-.767-6.364-2.825-8.25-5.795-1.886-2.971-2.502-6.497-1.736-9.932zm-45.852 207.793 33.566-3.629c.977-.106 1.595.407 1.875.721.28.313.717.98.502 1.937l-6.547 29.319-35.481-7.92 4.176-18.714c.208-.923.978-1.612 1.909-1.714zm-20.697 43.642 2.361-10.579 52.913 11.811-2.361 10.58zm35.113 48.489c-.32.18-.982.44-1.785.164l-30.417-10.5c-1.057-.365-1.671-1.463-1.43-2.547l4.234-18.961 35.49 7.923-5.023 22.489c-.186.829-.75 1.253-1.069 1.432zm92.738-125.861c-18.631 10.816-37.859 18.49-58.635 23.395-.545-.904-1.174-1.764-1.889-2.565-3.685-4.125-9.17-6.24-14.672-5.644l-7.348.794 35.503-159.039c4.817-.233 9.517-1.697 13.699-4.352 1.977-1.255 3.764-2.727 5.338-4.38l109.114 58.205-11.782 13.445c-2.915 3.327-4.36 7.589-4.069 12.003.229 3.474 1.526 6.704 3.684 9.348-21.384 22.827-41.756 43.007-68.943 58.79zm129.338-15.393c-1.197 1.362-2.853 2.177-4.663 2.294-1.802.119-3.557-.478-4.919-1.674-2.813-2.472-3.091-6.771-.62-9.583 1.197-1.363 2.853-2.177 4.662-2.294.15-.01.3-.015.448-.015 1.648 0 3.223.591 4.473 1.689 1.362 1.197 2.177 2.853 2.294 4.663s-.478 3.557-1.675 4.92zm64.994 57.093c-1.197 1.362-2.853 2.177-4.662 2.294-1.818.116-3.559-.478-4.92-1.674-2.813-2.471-3.091-6.77-.62-9.583 1.197-1.363 2.853-2.177 4.662-2.294.15-.01.3-.015.448-.015 1.648 0 3.223.591 4.473 1.689 1.362 1.197 2.177 2.853 2.294 4.663s-.478 3.557-1.675 4.92zm84.73-6.701-34.029 38.833c-.566.645-1.553.711-2.199.146l-33.213-29.105c.776-2.064 1.237-4.238 1.355-6.471l39.661-12.15c.869 1.146 1.864 2.222 2.985 3.207 4.13 3.628 9.259 5.409 14.367 5.409 3.569 0 7.126-.877 10.328-2.594l.6.526c.402.352.51.776.528 1.07.019.293-.031.728-.383 1.129z" fill="#000000" data-original="#000000"></path>
      </g>
    </g>
  </symbol>
  <symbol xmlns="http://www.w3.org/2000/svg" version="1.1" xmlns:xlink="http://www.w3.org/1999/xlink" xmlnsSvgjs="http://svgjs.com/svgjs" x="0" y="0" xml:space="preserve" viewBox="0 0 512 512" id="bracelet">
    <g>
      <g xmlns="http://www.w3.org/2000/svg">
        <g>
          <g>
            <path d="m403.487 44.972-16.959 37.135c47.68 38.255 78.195 97.002 78.195 162.88 0 115.276-93.447 208.723-208.723 208.723s-208.723-93.447-208.723-208.723c0-65.878 30.515-124.625 78.195-162.88l-16.959-37.135c-61.279 45.256-101.013 117.993-101.013 200.015 0 137.246 111.254 248.5 248.5 248.5s248.5-111.254 248.5-248.5c0-82.022-39.734-154.759-101.013-200.015z" fill="#e0d3ce" data-original="#e0d3ce" data-darkreader-inline-fill=""></path>
            <g fill="#cdbfbb" data-darkreader-inline-fill="">
              <path d="m504.5 244.989c0 137.24-111.25 248.5-248.5 248.5-4.44 0-8.86-.12-13.25-.35 131.09-6.88 235.25-115.35 235.25-248.15 0-73.06-31.52-138.75-81.72-184.23l7.21-15.79c61.28 45.26 101.01 118 101.01 200.02z" fill="#cdbfbb" data-original="#cdbfbb" data-darkreader-inline-fill=""></path>
              <path d="m125.47 82.109c-7.08 5.68-13.78 11.81-20.05 18.35-9.53-5.92-17.33-14.6-22.14-25.2l-2.8-6.18c8.72-8.71 18.09-16.77 28.03-24.11z" fill="#cdbfbb" data-original="#cdbfbb" data-darkreader-inline-fill=""></path>
              <path d="m431.52 69.079-2.8 6.18c-4.81 10.61-12.61 19.28-22.14 25.2-6.27-6.54-12.97-12.67-20.05-18.35l16.96-37.14c9.94 7.34 19.31 15.4 28.03 24.11z" fill="#cdbfbb" data-original="#cdbfbb" data-darkreader-inline-fill=""></path>
            </g>
            <g fill="#fcc16d" data-darkreader-inline-fill="">
              <path d="m228.626 13.645c-2.569-4.909-8.547-7.022-13.657-4.705-2.299 1.043-4.039 2.809-5.076 4.907-3.257 6.595-8.37 12.09-15.069 15.127l-2.253 1.022c-4.002 1.815-8.682 1.246-12.132-1.476l-3.257-2.569c-14.334-11.306-32.722-15.52-50.175-12.035-10.514 2.1-21.402 1.283-31.437-2.493-8.577-3.227-16.774 5.528-12.989 13.874l18.912 41.7c8.632 19.033 31.058 27.464 50.091 18.833l68.628-31.124c12.399-5.623 17.892-20.233 12.269-32.632l-3.581-7.896-.247-.545z" fill="#fcc16d" data-original="#fcc16d" data-darkreader-inline-fill=""></path>
              <path d="m283.374 13.645c2.569-4.909 8.547-7.022 13.657-4.705 2.299 1.043 4.039 2.809 5.076 4.907 3.257 6.595 8.37 12.09 15.069 15.127l2.253 1.022c4.002 1.815 8.682 1.246 12.132-1.476l3.257-2.569c14.334-11.306 32.722-15.52 50.175-12.035 10.514 2.1 21.402 1.283 31.437-2.493 8.577-3.227 16.774 5.528 12.989 13.874l-18.912 41.7c-8.632 19.033-31.058 27.464-50.091 18.833l-68.628-31.124c-12.399-5.623-17.892-20.233-12.269-32.632l3.581-7.896.247-.545z" fill="#fcc16d" data-original="#fcc16d" data-darkreader-inline-fill=""></path>
            </g>
          </g>
          <path d="m301.942 503.999h-88.885c-5.523 0-10-4.477-10-10v-44c0-5.523 4.477-10 10-10h88.885c5.523 0 10 4.477 10 10v44c0 5.523-4.477 10-10 10z" fill="#fcc16d" data-original="#fcc16d" data-darkreader-inline-fill=""></path>
          <path d="m311.94 449.999v44c0 5.52-4.47 10-10 10h-32.88c5.53 0 10-4.48 10-10v-44c0-5.52-4.47-10-10-10h32.88c5.53 0 10 4.48 10 10z" fill="#fcb44d" data-original="#fcb44d" data-darkreader-inline-fill=""></path>
        </g>
        <g>
          <path d="m425.152 52.861 11.096-24.466c2.982-6.575 1.721-14.229-3.214-19.5-4.934-5.271-12.487-7.033-19.247-4.491-8.647 3.253-18.099 4-27.326 2.157-19.864-3.965-40.381.954-56.289 13.502l-3.256 2.569c-1.253.988-2.936 1.193-4.39.534l-2.254-1.022c-6.073-2.754-9.574-7.838-11.441-11.618-1.834-3.713-4.924-6.702-8.702-8.416-8.425-3.821-18.336-.615-22.971 7.284-.243.355-.458.737-.643 1.142l-3.827 8.441c-7.322 16.145-.145 35.237 16.001 42.56l68.628 31.124c6.057 2.747 12.405 4.046 18.659 4.046 4.666 0 9.276-.73 13.673-2.116 25.073 22.3 44.303 50.601 55.654 82.018 1.104 3.054 3.983 4.954 7.054 4.954.847 0 1.707-.144 2.549-.448 3.896-1.407 5.912-5.707 4.505-9.602-3.533-9.781-7.8-19.268-12.698-28.413 13.623 6.137 26.351 14.393 37.485 24.378 8.385 24.689 12.803 50.835 12.803 77.51 0 7.951-.399 15.822-1.155 23.602-6.003-14.278-14.03-27.69-23.839-39.656-.136-.166-.281-.32-.428-.471-.605-7.922-1.633-15.822-3.098-23.622-.765-4.072-4.692-6.75-8.756-5.987-4.07.765-6.751 4.685-5.986 8.755 2.313 12.311 3.484 24.887 3.484 37.379 0 88.379-58.619 167.156-142.917 192.639-3.168-3.166-7.541-5.127-12.363-5.127h-27.614c-4.143 0-7.5 3.358-7.5 7.5s3.357 7.5 7.5 7.5h27.614c1.379 0 2.5 1.122 2.5 2.5v44c0 1.378-1.121 2.5-2.5 2.5h-88.885c-1.379 0-2.5-1.122-2.5-2.5v-44c0-1.378 1.121-2.5 2.5-2.5h27.947c4.143 0 7.5-3.358 7.5-7.5s-3.357-7.5-7.5-7.5h-27.947c-5.162 0-9.794 2.26-13 5.826-85.707-24.742-145.28-103.763-145.28-193.338 0-57.507 24.599-112.179 67.548-150.382 4.47 1.415 9.064 2.127 13.652 2.127 6.373 0 12.729-1.361 18.706-4.072l10.147-4.602c3.772-1.711 5.443-6.156 3.732-9.928-1.71-3.771-6.152-5.443-9.928-3.733l-10.147 4.602c-7.38 3.348-15.622 3.62-23.209.768-7.586-2.852-13.606-8.487-16.954-15.868l-18.913-41.7c-.668-1.475.028-2.546.504-3.053.474-.507 1.498-1.275 3.014-.703 11.274 4.242 23.566 5.221 35.547 2.828 15.546-3.105 31.607.746 44.061 10.569l3.258 2.569c5.677 4.478 13.292 5.404 19.874 2.417l2.254-1.022c8.001-3.629 14.466-10.073 18.695-18.637.215-.435.641-1.031 1.448-1.397 1.454-.66 3.173-.064 3.915 1.352.038.073.077.146.117.217l3.553 7.832c1.892 4.172 2.046 8.832.434 13.12-1.611 4.288-4.798 7.691-8.97 9.583l-28.139 12.761c-3.772 1.711-5.443 6.156-3.732 9.928s6.153 5.446 9.928 3.733l28.139-12.761c7.821-3.547 13.793-9.928 16.815-17.966 3.021-8.039 2.732-16.772-.814-24.594l-3.827-8.441c-.183-.401-.396-.778-.636-1.13-4.634-7.908-14.55-11.118-22.979-7.295-3.777 1.713-6.868 4.702-8.702 8.416-1.866 3.779-5.367 8.863-11.44 11.618l-2.254 1.021c-1.456.661-3.137.455-4.391-.534l-3.258-2.569c-15.907-12.548-36.425-17.466-56.287-13.501-9.228 1.843-18.679 1.098-27.326-2.157-6.758-2.542-14.313-.781-19.247 4.491-4.935 5.271-6.196 12.925-3.214 19.5l11.097 24.467c-55.224 48.65-86.849 118.479-86.849 192.125 0 29.651 5.026 58.711 14.938 86.374 9.58 26.734 23.492 51.565 41.35 73.803 35.342 44.01 84.741 75.422 139.27 88.631v.205c0 9.649 7.851 17.5 17.5 17.5h88.885c9.649 0 17.5-7.851 17.5-17.5v-.946c53.927-13.757 102.697-45.446 137.43-89.345 36.065-45.584 55.127-100.468 55.127-158.722 0-73.631-31.628-143.479-86.848-192.126zm-331.812 14.314 1.324 2.919c3.098 6.833 7.734 12.663 13.507 17.125-11.386 10.674-21.492 22.454-30.209 35.106-13.875 4.23-26.918 10.222-38.999 17.903 13.182-27.301 31.528-52.143 54.377-73.053zm-65.539 100.297c11.321-10.157 23.898-18.329 37.541-24.433-14.035 26.243-22.611 55.288-24.92 85.395-10.009 12.11-18.19 25.689-24.277 40.173-.749-7.782-1.145-15.659-1.145-23.62 0-26.681 4.416-52.828 12.801-77.515zm-6.24 133.885c.051-.177.1-.355.138-.538 3.434-16.272 9.673-31.879 18.307-46.021 1.45 31.975 9.953 62.494 24.151 89.795-3.06 13.882-4.266 27.906-3.627 41.915-18.237-25.235-31.6-54.084-38.969-85.151zm56.622 106.786c-.02-.322-.054-.645-.117-.969-2.742-14.074-3.392-28.265-1.975-42.376 16.758 25.162 38.709 46.759 64.564 63.108 4.524 13.539 10.702 26.218 18.458 37.907-31.201-13.577-58.617-33.355-80.93-57.67zm107.643 67.484c-9.97-10.826-18.118-22.927-24.36-36.112 10.845 5.277 22.236 9.682 34.092 13.126v25.705c-3.275-.843-6.52-1.749-9.732-2.719zm177.687-396.628-68.628-31.124c-8.612-3.906-12.441-14.091-8.536-22.704l3.552-7.832c.041-.072.08-.145.118-.218.741-1.418 2.462-2.012 3.914-1.353.809.367 1.234.963 1.449 1.398 4.231 8.564 10.695 15.008 18.694 18.636l2.254 1.022c6.584 2.986 14.2 2.059 19.876-2.418l3.256-2.569c12.452-9.822 28.509-13.673 44.062-10.569 11.979 2.394 24.271 1.415 35.547-2.827 1.513-.571 2.539.196 3.014.703.476.507 1.172 1.579.504 3.053l-18.912 41.7c-6.911 15.239-24.929 22.012-40.164 15.102zm70.55 43.333c-8.776-12.72-18.922-24.511-30.255-35.135 5.664-4.373 10.373-10.145 13.528-17.103l1.325-2.922c22.87 20.93 41.229 45.805 54.414 73.14-12.154-7.711-25.326-13.804-39.012-17.98zm-114.621 329.416c10.673-3.276 21.072-7.406 31.098-12.307-6.275 13.202-14.518 25.489-24.337 36.158-2.24.679-4.49 1.335-6.761 1.952zm33.409 14.044c7.793-11.781 14.068-24.619 18.528-37.995 21.588-13.663 40.819-31.116 56.431-51.516 2.829-3.697 5.524-7.466 8.092-11.299 1.395 14.335.692 28.907-2.123 42.954-22.327 24.379-49.75 44.237-80.928 57.856zm98.604-79.567c.59-13.891-.609-27.886-3.569-41.42 14.507-27.746 22.712-58.228 24.114-89.991 8.608 14.107 14.844 29.676 18.279 45.886.034.162.098.308.142.465-7.377 30.976-20.74 59.808-38.966 85.06z" fill="#000000" data-original="#000000" data-darkreader-inline-fill=""></path>
          <path d="m150.633 39.873c-.206-4.137-3.748-7.335-7.864-7.117l-12.973.647c-4.137.207-7.323 3.728-7.116 7.865.199 4.01 3.514 7.126 7.484 7.126.126 0 .253-.003.38-.009l12.973-.647c4.136-.207 7.323-3.728 7.116-7.865z" fill="#000000" data-original="#000000" data-darkreader-inline-fill=""></path>
          <path d="m382.204 33.404-12.973-.647c-4.166-.211-7.659 2.98-7.864 7.117-.207 4.137 2.979 7.658 7.116 7.865l12.973.647c.128.006.254.009.38.009 3.971 0 7.285-3.117 7.484-7.126.207-4.138-2.979-7.659-7.116-7.865z" fill="#000000" data-original="#000000" data-darkreader-inline-fill=""></path>
          <path d="m378.087 59.65h-.104c-.012 0-.023 0-.036 0-4.125 0-7.479 3.334-7.499 7.465-.02 4.142 3.322 7.516 7.465 7.535h.104.036c4.125 0 7.479-3.334 7.499-7.465.019-4.142-3.323-7.515-7.465-7.535z" fill="#000000" data-original="#000000" data-darkreader-inline-fill=""></path>
          <path d="m133.983 59.65c-.012 0-.023 0-.036 0-4.125 0-7.479 3.334-7.499 7.465-.02 4.142 3.322 7.516 7.465 7.535h.104.036c4.125 0 7.479-3.334 7.499-7.465.02-4.142-3.322-7.516-7.465-7.535z" fill="#000000" data-original="#000000" data-darkreader-inline-fill=""></path>
        </g>
      </g>
    </g>
  </symbol>
</svg>