<svg version="1.1" id="Capa_1" xmlns="http://www.w3.org/2000/svg" xmlns:xlink="http://www.w3.org/1999/xlink" x="0px" y="0px"
	 viewBox="0 0 38.167 38.167" style="enable-background:new 0 0 38.167 38.167;" xml:space="preserve">
<g>
	<path d="M38.167,30.066v-0.194h-0.865h-0.795h-6.518c2.426-2.929,3.883-6.688,3.883-10.787c0-9.354-7.582-16.936-16.936-16.936
		S0,9.731,0,19.085c0,9.351,7.582,16.934,16.936,16.934c2.615,0,5.082-0.611,7.293-1.669h0.041h12.236h0.795h0.865v-0.238h-1.102
		v-0.481l1.102-0.001v-0.296h-0.541v-2.44h0.541v-0.345h-1.125v-0.482L38.167,30.066L38.167,30.066z M34.752,30.058h1.293v0.481
		h-1.293V30.058z M32.241,30.058h1.293v0.481h-1.293V30.058z M30.911,30.058v0.481H29.62v-0.261
		c0.066-0.073,0.137-0.146,0.203-0.221L30.911,30.058L30.911,30.058z M10.438,18.936c-1.926,0.625-3.996-0.43-4.621-2.357
		c-0.625-1.929,0.429-3.997,2.357-4.623c1.926-0.625,3.996,0.431,4.621,2.357C13.42,16.241,12.365,18.309,10.438,18.936z
		 M10.531,28.249c-1.926,0.625-3.996-0.431-4.622-2.357s0.43-3.997,2.357-4.623c1.927-0.624,3.997,0.43,4.622,2.357
		C13.514,25.555,12.459,27.623,10.531,28.249z M15.942,16.914c1.928-0.625,3.997,0.429,4.622,2.357
		c0.626,1.926-0.43,3.997-2.355,4.623c-1.928,0.624-3.998-0.431-4.623-2.358C12.96,19.608,14.015,17.54,15.942,16.914z M16.25,8.111
		c1.928-0.625,3.998,0.43,4.623,2.356c0.625,1.928-0.43,3.998-2.357,4.624c-1.928,0.625-3.996-0.43-4.622-2.356
		C13.268,10.805,14.324,8.736,16.25,8.111z M15.803,25.905c1.928-0.624,3.997,0.433,4.623,2.36c0.625,1.927-0.43,3.996-2.357,4.621
		s-3.998-0.43-4.623-2.357S13.875,26.531,15.803,25.905z M23.756,22.093c1.926-0.626,3.996,0.429,4.621,2.357
		c0.627,1.927-0.43,3.996-2.355,4.622c-1.928,0.626-3.999-0.431-4.624-2.356C20.773,24.787,21.828,22.719,23.756,22.093z
		 M24.063,13.289c1.928-0.625,3.998,0.43,4.623,2.357s-0.43,3.996-2.357,4.623c-1.928,0.625-3.997-0.43-4.622-2.357
		C21.08,15.985,22.137,13.914,24.063,13.289z M16.936,4.312c7.463,0,13.616,5.54,14.614,12.729
		c-0.088-0.368-0.178-0.736-0.297-1.104C28.686,8.03,20.196,3.701,12.289,6.269c-5.156,1.673-8.773,5.87-9.967,10.776
		C3.316,9.854,9.471,4.312,16.936,4.312z M24.754,34.097c0.275-0.143,0.541-0.299,0.807-0.456v0.456H24.754z M28.182,34.097h-1.291
		v-0.482h1.291V34.097z M29.469,33.326h-3.391c1.109-0.714,2.131-1.552,3.041-2.498h0.35V33.326z M30.911,34.097H29.62v-0.482h1.291
		C30.911,33.615,30.911,34.097,30.911,34.097z M33.534,34.097h-1.293v-0.482h1.293V34.097z M36.045,34.097h-1.293v-0.482h1.293
		V34.097z M36.149,33.326h-5.305v-2.499h5.305V33.326z"/>
	</g>
</svg>
